<?xml version="1.0" encoding="utf-8" standalone="no"?>
<!DOCTYPE svg PUBLIC "-//W3C//DTD SVG 1.1//EN"
  "http://www.w3.org/Graphics/SVG/1.1/DTD/svg11.dtd">
<!-- Created with matplotlib (http://matplotlib.org/) -->
<svg height="345pt" version="1.1" viewBox="0 0 460 345" width="460pt" xmlns="http://www.w3.org/2000/svg" xmlns:xlink="http://www.w3.org/1999/xlink">
 <defs>
  <style type="text/css">
*{stroke-linecap:butt;stroke-linejoin:round;}
  </style>
 </defs>
 <g id="figure_1">
  <g id="patch_1">
   <path d="M 0 345.6 
L 460.8 345.6 
L 460.8 0 
L 0 0 
z
" style="fill:#ffffff;"/>
  </g>
  <g id="axes_1">
   <g id="patch_2">
    <path d="M 57.6 307.584 
L 299.52 307.584 
L 299.52 41.472 
L 57.6 41.472 
z
" style="fill:#ffffff;"/>
   </g>
   <g id="matplotlib.axis_1">
    <g id="xtick_1">
     <g id="line2d_1">
      <defs>
       <path d="M 0 0 
L 0 3.5 
" id="mb4b0081ebc" style="stroke:#000000;stroke-width:0.8;"/>
      </defs>
      <g>
       <use style="stroke:#000000;stroke-width:0.8;" x="59.432727" xlink:href="#mb4b0081ebc" y="307.584"/>
      </g>
     </g>
     <g id="text_1">
      <!-- 0 -->
      <defs>
       <path d="M 31.78125 66.40625 
Q 24.171875 66.40625 20.328125 58.90625 
Q 16.5 51.421875 16.5 36.375 
Q 16.5 21.390625 20.328125 13.890625 
Q 24.171875 6.390625 31.78125 6.390625 
Q 39.453125 6.390625 43.28125 13.890625 
Q 47.125 21.390625 47.125 36.375 
Q 47.125 51.421875 43.28125 58.90625 
Q 39.453125 66.40625 31.78125 66.40625 
z
M 31.78125 74.21875 
Q 44.046875 74.21875 50.515625 64.515625 
Q 56.984375 54.828125 56.984375 36.375 
Q 56.984375 17.96875 50.515625 8.265625 
Q 44.046875 -1.421875 31.78125 -1.421875 
Q 19.53125 -1.421875 13.0625 8.265625 
Q 6.59375 17.96875 6.59375 36.375 
Q 6.59375 54.828125 13.0625 64.515625 
Q 19.53125 74.21875 31.78125 74.21875 
z
" id="DejaVuSans-30"/>
      </defs>
      <g transform="translate(56.251477 322.182437)scale(0.1 -0.1)">
       <use xlink:href="#DejaVuSans-30"/>
      </g>
     </g>
    </g>
    <g id="xtick_2">
     <g id="line2d_2">
      <g>
       <use style="stroke:#000000;stroke-width:0.8;" x="105.250909" xlink:href="#mb4b0081ebc" y="307.584"/>
      </g>
     </g>
     <g id="text_2">
      <!-- 100 -->
      <defs>
       <path d="M 12.40625 8.296875 
L 28.515625 8.296875 
L 28.515625 63.921875 
L 10.984375 60.40625 
L 10.984375 69.390625 
L 28.421875 72.90625 
L 38.28125 72.90625 
L 38.28125 8.296875 
L 54.390625 8.296875 
L 54.390625 0 
L 12.40625 0 
z
" id="DejaVuSans-31"/>
      </defs>
      <g transform="translate(95.707159 322.182437)scale(0.1 -0.1)">
       <use xlink:href="#DejaVuSans-31"/>
       <use x="63.623047" xlink:href="#DejaVuSans-30"/>
       <use x="127.246094" xlink:href="#DejaVuSans-30"/>
      </g>
     </g>
    </g>
    <g id="xtick_3">
     <g id="line2d_3">
      <g>
       <use style="stroke:#000000;stroke-width:0.8;" x="151.069091" xlink:href="#mb4b0081ebc" y="307.584"/>
      </g>
     </g>
     <g id="text_3">
      <!-- 200 -->
      <defs>
       <path d="M 19.1875 8.296875 
L 53.609375 8.296875 
L 53.609375 0 
L 7.328125 0 
L 7.328125 8.296875 
Q 12.9375 14.109375 22.625 23.890625 
Q 32.328125 33.6875 34.8125 36.53125 
Q 39.546875 41.84375 41.421875 45.53125 
Q 43.3125 49.21875 43.3125 52.78125 
Q 43.3125 58.59375 39.234375 62.25 
Q 35.15625 65.921875 28.609375 65.921875 
Q 23.96875 65.921875 18.8125 64.3125 
Q 13.671875 62.703125 7.8125 59.421875 
L 7.8125 69.390625 
Q 13.765625 71.78125 18.9375 73 
Q 24.125 74.21875 28.421875 74.21875 
Q 39.75 74.21875 46.484375 68.546875 
Q 53.21875 62.890625 53.21875 53.421875 
Q 53.21875 48.921875 51.53125 44.890625 
Q 49.859375 40.875 45.40625 35.40625 
Q 44.1875 33.984375 37.640625 27.21875 
Q 31.109375 20.453125 19.1875 8.296875 
z
" id="DejaVuSans-32"/>
      </defs>
      <g transform="translate(141.525341 322.182437)scale(0.1 -0.1)">
       <use xlink:href="#DejaVuSans-32"/>
       <use x="63.623047" xlink:href="#DejaVuSans-30"/>
       <use x="127.246094" xlink:href="#DejaVuSans-30"/>
      </g>
     </g>
    </g>
    <g id="xtick_4">
     <g id="line2d_4">
      <g>
       <use style="stroke:#000000;stroke-width:0.8;" x="196.887273" xlink:href="#mb4b0081ebc" y="307.584"/>
      </g>
     </g>
     <g id="text_4">
      <!-- 300 -->
      <defs>
       <path d="M 40.578125 39.3125 
Q 47.65625 37.796875 51.625 33 
Q 55.609375 28.21875 55.609375 21.1875 
Q 55.609375 10.40625 48.1875 4.484375 
Q 40.765625 -1.421875 27.09375 -1.421875 
Q 22.515625 -1.421875 17.65625 -0.515625 
Q 12.796875 0.390625 7.625 2.203125 
L 7.625 11.71875 
Q 11.71875 9.328125 16.59375 8.109375 
Q 21.484375 6.890625 26.8125 6.890625 
Q 36.078125 6.890625 40.9375 10.546875 
Q 45.796875 14.203125 45.796875 21.1875 
Q 45.796875 27.640625 41.28125 31.265625 
Q 36.765625 34.90625 28.71875 34.90625 
L 20.21875 34.90625 
L 20.21875 43.015625 
L 29.109375 43.015625 
Q 36.375 43.015625 40.234375 45.921875 
Q 44.09375 48.828125 44.09375 54.296875 
Q 44.09375 59.90625 40.109375 62.90625 
Q 36.140625 65.921875 28.71875 65.921875 
Q 24.65625 65.921875 20.015625 65.03125 
Q 15.375 64.15625 9.8125 62.3125 
L 9.8125 71.09375 
Q 15.4375 72.65625 20.34375 73.4375 
Q 25.25 74.21875 29.59375 74.21875 
Q 40.828125 74.21875 47.359375 69.109375 
Q 53.90625 64.015625 53.90625 55.328125 
Q 53.90625 49.265625 50.4375 45.09375 
Q 46.96875 40.921875 40.578125 39.3125 
z
" id="DejaVuSans-33"/>
      </defs>
      <g transform="translate(187.343523 322.182437)scale(0.1 -0.1)">
       <use xlink:href="#DejaVuSans-33"/>
       <use x="63.623047" xlink:href="#DejaVuSans-30"/>
       <use x="127.246094" xlink:href="#DejaVuSans-30"/>
      </g>
     </g>
    </g>
    <g id="xtick_5">
     <g id="line2d_5">
      <g>
       <use style="stroke:#000000;stroke-width:0.8;" x="242.705455" xlink:href="#mb4b0081ebc" y="307.584"/>
      </g>
     </g>
     <g id="text_5">
      <!-- 400 -->
      <defs>
       <path d="M 37.796875 64.3125 
L 12.890625 25.390625 
L 37.796875 25.390625 
z
M 35.203125 72.90625 
L 47.609375 72.90625 
L 47.609375 25.390625 
L 58.015625 25.390625 
L 58.015625 17.1875 
L 47.609375 17.1875 
L 47.609375 0 
L 37.796875 0 
L 37.796875 17.1875 
L 4.890625 17.1875 
L 4.890625 26.703125 
z
" id="DejaVuSans-34"/>
      </defs>
      <g transform="translate(233.161705 322.182437)scale(0.1 -0.1)">
       <use xlink:href="#DejaVuSans-34"/>
       <use x="63.623047" xlink:href="#DejaVuSans-30"/>
       <use x="127.246094" xlink:href="#DejaVuSans-30"/>
      </g>
     </g>
    </g>
    <g id="xtick_6">
     <g id="line2d_6">
      <g>
       <use style="stroke:#000000;stroke-width:0.8;" x="288.523636" xlink:href="#mb4b0081ebc" y="307.584"/>
      </g>
     </g>
     <g id="text_6">
      <!-- 500 -->
      <defs>
       <path d="M 10.796875 72.90625 
L 49.515625 72.90625 
L 49.515625 64.59375 
L 19.828125 64.59375 
L 19.828125 46.734375 
Q 21.96875 47.46875 24.109375 47.828125 
Q 26.265625 48.1875 28.421875 48.1875 
Q 40.625 48.1875 47.75 41.5 
Q 54.890625 34.8125 54.890625 23.390625 
Q 54.890625 11.625 47.5625 5.09375 
Q 40.234375 -1.421875 26.90625 -1.421875 
Q 22.3125 -1.421875 17.546875 -0.640625 
Q 12.796875 0.140625 7.71875 1.703125 
L 7.71875 11.625 
Q 12.109375 9.234375 16.796875 8.0625 
Q 21.484375 6.890625 26.703125 6.890625 
Q 35.15625 6.890625 40.078125 11.328125 
Q 45.015625 15.765625 45.015625 23.390625 
Q 45.015625 31 40.078125 35.4375 
Q 35.15625 39.890625 26.703125 39.890625 
Q 22.75 39.890625 18.8125 39.015625 
Q 14.890625 38.140625 10.796875 36.28125 
z
" id="DejaVuSans-35"/>
      </defs>
      <g transform="translate(278.979886 322.182437)scale(0.1 -0.1)">
       <use xlink:href="#DejaVuSans-35"/>
       <use x="63.623047" xlink:href="#DejaVuSans-30"/>
       <use x="127.246094" xlink:href="#DejaVuSans-30"/>
      </g>
     </g>
    </g>
    <g id="text_7">
     <!-- Vesicule radius,  $ nm$ -->
     <defs>
      <path d="M 28.609375 0 
L 0.78125 72.90625 
L 11.078125 72.90625 
L 34.1875 11.53125 
L 57.328125 72.90625 
L 67.578125 72.90625 
L 39.796875 0 
z
" id="DejaVuSans-56"/>
      <path d="M 56.203125 29.59375 
L 56.203125 25.203125 
L 14.890625 25.203125 
Q 15.484375 15.921875 20.484375 11.0625 
Q 25.484375 6.203125 34.421875 6.203125 
Q 39.59375 6.203125 44.453125 7.46875 
Q 49.3125 8.734375 54.109375 11.28125 
L 54.109375 2.78125 
Q 49.265625 0.734375 44.1875 -0.34375 
Q 39.109375 -1.421875 33.890625 -1.421875 
Q 20.796875 -1.421875 13.15625 6.1875 
Q 5.515625 13.8125 5.515625 26.8125 
Q 5.515625 40.234375 12.765625 48.109375 
Q 20.015625 56 32.328125 56 
Q 43.359375 56 49.78125 48.890625 
Q 56.203125 41.796875 56.203125 29.59375 
z
M 47.21875 32.234375 
Q 47.125 39.59375 43.09375 43.984375 
Q 39.0625 48.390625 32.421875 48.390625 
Q 24.90625 48.390625 20.390625 44.140625 
Q 15.875 39.890625 15.1875 32.171875 
z
" id="DejaVuSans-65"/>
      <path d="M 44.28125 53.078125 
L 44.28125 44.578125 
Q 40.484375 46.53125 36.375 47.5 
Q 32.28125 48.484375 27.875 48.484375 
Q 21.1875 48.484375 17.84375 46.4375 
Q 14.5 44.390625 14.5 40.28125 
Q 14.5 37.15625 16.890625 35.375 
Q 19.28125 33.59375 26.515625 31.984375 
L 29.59375 31.296875 
Q 39.15625 29.25 43.1875 25.515625 
Q 47.21875 21.78125 47.21875 15.09375 
Q 47.21875 7.46875 41.1875 3.015625 
Q 35.15625 -1.421875 24.609375 -1.421875 
Q 20.21875 -1.421875 15.453125 -0.5625 
Q 10.6875 0.296875 5.421875 2 
L 5.421875 11.28125 
Q 10.40625 8.6875 15.234375 7.390625 
Q 20.0625 6.109375 24.8125 6.109375 
Q 31.15625 6.109375 34.5625 8.28125 
Q 37.984375 10.453125 37.984375 14.40625 
Q 37.984375 18.0625 35.515625 20.015625 
Q 33.0625 21.96875 24.703125 23.78125 
L 21.578125 24.515625 
Q 13.234375 26.265625 9.515625 29.90625 
Q 5.8125 33.546875 5.8125 39.890625 
Q 5.8125 47.609375 11.28125 51.796875 
Q 16.75 56 26.8125 56 
Q 31.78125 56 36.171875 55.265625 
Q 40.578125 54.546875 44.28125 53.078125 
z
" id="DejaVuSans-73"/>
      <path d="M 9.421875 54.6875 
L 18.40625 54.6875 
L 18.40625 0 
L 9.421875 0 
z
M 9.421875 75.984375 
L 18.40625 75.984375 
L 18.40625 64.59375 
L 9.421875 64.59375 
z
" id="DejaVuSans-69"/>
      <path d="M 48.78125 52.59375 
L 48.78125 44.1875 
Q 44.96875 46.296875 41.140625 47.34375 
Q 37.3125 48.390625 33.40625 48.390625 
Q 24.65625 48.390625 19.8125 42.84375 
Q 14.984375 37.3125 14.984375 27.296875 
Q 14.984375 17.28125 19.8125 11.734375 
Q 24.65625 6.203125 33.40625 6.203125 
Q 37.3125 6.203125 41.140625 7.25 
Q 44.96875 8.296875 48.78125 10.40625 
L 48.78125 2.09375 
Q 45.015625 0.34375 40.984375 -0.53125 
Q 36.96875 -1.421875 32.421875 -1.421875 
Q 20.0625 -1.421875 12.78125 6.34375 
Q 5.515625 14.109375 5.515625 27.296875 
Q 5.515625 40.671875 12.859375 48.328125 
Q 20.21875 56 33.015625 56 
Q 37.15625 56 41.109375 55.140625 
Q 45.0625 54.296875 48.78125 52.59375 
z
" id="DejaVuSans-63"/>
      <path d="M 8.5 21.578125 
L 8.5 54.6875 
L 17.484375 54.6875 
L 17.484375 21.921875 
Q 17.484375 14.15625 20.5 10.265625 
Q 23.53125 6.390625 29.59375 6.390625 
Q 36.859375 6.390625 41.078125 11.03125 
Q 45.3125 15.671875 45.3125 23.6875 
L 45.3125 54.6875 
L 54.296875 54.6875 
L 54.296875 0 
L 45.3125 0 
L 45.3125 8.40625 
Q 42.046875 3.421875 37.71875 1 
Q 33.40625 -1.421875 27.6875 -1.421875 
Q 18.265625 -1.421875 13.375 4.4375 
Q 8.5 10.296875 8.5 21.578125 
z
M 31.109375 56 
z
" id="DejaVuSans-75"/>
      <path d="M 9.421875 75.984375 
L 18.40625 75.984375 
L 18.40625 0 
L 9.421875 0 
z
" id="DejaVuSans-6c"/>
      <path id="DejaVuSans-20"/>
      <path d="M 41.109375 46.296875 
Q 39.59375 47.171875 37.8125 47.578125 
Q 36.03125 48 33.890625 48 
Q 26.265625 48 22.1875 43.046875 
Q 18.109375 38.09375 18.109375 28.8125 
L 18.109375 0 
L 9.078125 0 
L 9.078125 54.6875 
L 18.109375 54.6875 
L 18.109375 46.1875 
Q 20.953125 51.171875 25.484375 53.578125 
Q 30.03125 56 36.53125 56 
Q 37.453125 56 38.578125 55.875 
Q 39.703125 55.765625 41.0625 55.515625 
z
" id="DejaVuSans-72"/>
      <path d="M 34.28125 27.484375 
Q 23.390625 27.484375 19.1875 25 
Q 14.984375 22.515625 14.984375 16.5 
Q 14.984375 11.71875 18.140625 8.90625 
Q 21.296875 6.109375 26.703125 6.109375 
Q 34.1875 6.109375 38.703125 11.40625 
Q 43.21875 16.703125 43.21875 25.484375 
L 43.21875 27.484375 
z
M 52.203125 31.203125 
L 52.203125 0 
L 43.21875 0 
L 43.21875 8.296875 
Q 40.140625 3.328125 35.546875 0.953125 
Q 30.953125 -1.421875 24.3125 -1.421875 
Q 15.921875 -1.421875 10.953125 3.296875 
Q 6 8.015625 6 15.921875 
Q 6 25.140625 12.171875 29.828125 
Q 18.359375 34.515625 30.609375 34.515625 
L 43.21875 34.515625 
L 43.21875 35.40625 
Q 43.21875 41.609375 39.140625 45 
Q 35.0625 48.390625 27.6875 48.390625 
Q 23 48.390625 18.546875 47.265625 
Q 14.109375 46.140625 10.015625 43.890625 
L 10.015625 52.203125 
Q 14.9375 54.109375 19.578125 55.046875 
Q 24.21875 56 28.609375 56 
Q 40.484375 56 46.34375 49.84375 
Q 52.203125 43.703125 52.203125 31.203125 
z
" id="DejaVuSans-61"/>
      <path d="M 45.40625 46.390625 
L 45.40625 75.984375 
L 54.390625 75.984375 
L 54.390625 0 
L 45.40625 0 
L 45.40625 8.203125 
Q 42.578125 3.328125 38.25 0.953125 
Q 33.9375 -1.421875 27.875 -1.421875 
Q 17.96875 -1.421875 11.734375 6.484375 
Q 5.515625 14.40625 5.515625 27.296875 
Q 5.515625 40.1875 11.734375 48.09375 
Q 17.96875 56 27.875 56 
Q 33.9375 56 38.25 53.625 
Q 42.578125 51.265625 45.40625 46.390625 
z
M 14.796875 27.296875 
Q 14.796875 17.390625 18.875 11.75 
Q 22.953125 6.109375 30.078125 6.109375 
Q 37.203125 6.109375 41.296875 11.75 
Q 45.40625 17.390625 45.40625 27.296875 
Q 45.40625 37.203125 41.296875 42.84375 
Q 37.203125 48.484375 30.078125 48.484375 
Q 22.953125 48.484375 18.875 42.84375 
Q 14.796875 37.203125 14.796875 27.296875 
z
" id="DejaVuSans-64"/>
      <path d="M 11.71875 12.40625 
L 22.015625 12.40625 
L 22.015625 4 
L 14.015625 -11.625 
L 7.71875 -11.625 
L 11.71875 4 
z
" id="DejaVuSans-2c"/>
      <path d="M 55.71875 33.015625 
L 49.3125 0 
L 40.28125 0 
L 46.6875 32.671875 
Q 47.125 34.96875 47.359375 36.71875 
Q 47.609375 38.484375 47.609375 39.5 
Q 47.609375 43.609375 45.015625 45.890625 
Q 42.4375 48.1875 37.796875 48.1875 
Q 30.5625 48.1875 25.34375 43.375 
Q 20.125 38.578125 18.5 30.328125 
L 12.5 0 
L 3.515625 0 
L 14.109375 54.6875 
L 23.09375 54.6875 
L 21.296875 46.09375 
Q 25.046875 50.828125 30.3125 53.40625 
Q 35.59375 56 41.40625 56 
Q 48.640625 56 52.609375 52.09375 
Q 56.59375 48.1875 56.59375 41.109375 
Q 56.59375 39.359375 56.375 37.359375 
Q 56.15625 35.359375 55.71875 33.015625 
z
" id="DejaVuSans-Oblique-6e"/>
      <path d="M 89.796875 33.015625 
L 83.40625 0 
L 74.421875 0 
L 80.71875 32.71875 
Q 81.109375 34.8125 81.296875 36.328125 
Q 81.5 37.84375 81.5 38.921875 
Q 81.5 43.3125 79.046875 45.75 
Q 76.609375 48.1875 72.21875 48.1875 
Q 65.671875 48.1875 60.546875 43.28125 
Q 55.421875 38.375 53.90625 30.515625 
L 47.90625 0 
L 38.921875 0 
L 45.3125 32.71875 
Q 45.703125 34.515625 45.890625 36.046875 
Q 46.09375 37.59375 46.09375 38.8125 
Q 46.09375 43.265625 43.65625 45.71875 
Q 41.21875 48.1875 36.921875 48.1875 
Q 30.28125 48.1875 25.140625 43.28125 
Q 20.015625 38.375 18.5 30.515625 
L 12.5 0 
L 3.515625 0 
L 14.203125 54.6875 
L 23.1875 54.6875 
L 21.484375 46.1875 
Q 25.140625 50.984375 30.046875 53.484375 
Q 34.96875 56 40.578125 56 
Q 46.53125 56 50.359375 52.875 
Q 54.203125 49.75 54.984375 44.1875 
Q 59.078125 49.953125 64.46875 52.96875 
Q 69.875 56 75.875 56 
Q 82.90625 56 86.734375 51.953125 
Q 90.578125 47.90625 90.578125 40.484375 
Q 90.578125 38.875 90.375 36.9375 
Q 90.1875 35.015625 89.796875 33.015625 
z
" id="DejaVuSans-Oblique-6d"/>
     </defs>
     <g transform="translate(127.81 335.860562)scale(0.1 -0.1)">
      <use transform="translate(0 0.015625)" xlink:href="#DejaVuSans-56"/>
      <use transform="translate(68.408203 0.015625)" xlink:href="#DejaVuSans-65"/>
      <use transform="translate(129.931641 0.015625)" xlink:href="#DejaVuSans-73"/>
      <use transform="translate(182.03125 0.015625)" xlink:href="#DejaVuSans-69"/>
      <use transform="translate(209.814453 0.015625)" xlink:href="#DejaVuSans-63"/>
      <use transform="translate(264.794922 0.015625)" xlink:href="#DejaVuSans-75"/>
      <use transform="translate(328.173828 0.015625)" xlink:href="#DejaVuSans-6c"/>
      <use transform="translate(355.957031 0.015625)" xlink:href="#DejaVuSans-65"/>
      <use transform="translate(417.480469 0.015625)" xlink:href="#DejaVuSans-20"/>
      <use transform="translate(449.267578 0.015625)" xlink:href="#DejaVuSans-72"/>
      <use transform="translate(490.380859 0.015625)" xlink:href="#DejaVuSans-61"/>
      <use transform="translate(551.660156 0.015625)" xlink:href="#DejaVuSans-64"/>
      <use transform="translate(615.136719 0.015625)" xlink:href="#DejaVuSans-69"/>
      <use transform="translate(642.919922 0.015625)" xlink:href="#DejaVuSans-75"/>
      <use transform="translate(706.298828 0.015625)" xlink:href="#DejaVuSans-73"/>
      <use transform="translate(758.398438 0.015625)" xlink:href="#DejaVuSans-2c"/>
      <use transform="translate(790.185547 0.015625)" xlink:href="#DejaVuSans-20"/>
      <use transform="translate(821.972656 0.015625)" xlink:href="#DejaVuSans-20"/>
      <use transform="translate(853.759766 0.015625)" xlink:href="#DejaVuSans-Oblique-6e"/>
      <use transform="translate(917.138672 0.015625)" xlink:href="#DejaVuSans-Oblique-6d"/>
     </g>
    </g>
   </g>
   <g id="matplotlib.axis_2">
    <g id="ytick_1">
     <g id="line2d_7">
      <defs>
       <path d="M 0 0 
L -3.5 0 
" id="mef0c565848" style="stroke:#000000;stroke-width:0.8;"/>
      </defs>
      <g>
       <use style="stroke:#000000;stroke-width:0.8;" x="57.6" xlink:href="#mef0c565848" y="306.381913"/>
      </g>
     </g>
     <g id="text_8">
      <!-- 0 -->
      <g transform="translate(44.2375 310.181132)scale(0.1 -0.1)">
       <use xlink:href="#DejaVuSans-30"/>
      </g>
     </g>
    </g>
    <g id="ytick_2">
     <g id="line2d_8">
      <g>
       <use style="stroke:#000000;stroke-width:0.8;" x="57.6" xlink:href="#mef0c565848" y="256.294957"/>
      </g>
     </g>
     <g id="text_9">
      <!-- 200 -->
      <g transform="translate(31.5125 260.094175)scale(0.1 -0.1)">
       <use xlink:href="#DejaVuSans-32"/>
       <use x="63.623047" xlink:href="#DejaVuSans-30"/>
       <use x="127.246094" xlink:href="#DejaVuSans-30"/>
      </g>
     </g>
    </g>
    <g id="ytick_3">
     <g id="line2d_9">
      <g>
       <use style="stroke:#000000;stroke-width:0.8;" x="57.6" xlink:href="#mef0c565848" y="206.208"/>
      </g>
     </g>
     <g id="text_10">
      <!-- 400 -->
      <g transform="translate(31.5125 210.007219)scale(0.1 -0.1)">
       <use xlink:href="#DejaVuSans-34"/>
       <use x="63.623047" xlink:href="#DejaVuSans-30"/>
       <use x="127.246094" xlink:href="#DejaVuSans-30"/>
      </g>
     </g>
    </g>
    <g id="ytick_4">
     <g id="line2d_10">
      <g>
       <use style="stroke:#000000;stroke-width:0.8;" x="57.6" xlink:href="#mef0c565848" y="156.121043"/>
      </g>
     </g>
     <g id="text_11">
      <!-- 600 -->
      <defs>
       <path d="M 33.015625 40.375 
Q 26.375 40.375 22.484375 35.828125 
Q 18.609375 31.296875 18.609375 23.390625 
Q 18.609375 15.53125 22.484375 10.953125 
Q 26.375 6.390625 33.015625 6.390625 
Q 39.65625 6.390625 43.53125 10.953125 
Q 47.40625 15.53125 47.40625 23.390625 
Q 47.40625 31.296875 43.53125 35.828125 
Q 39.65625 40.375 33.015625 40.375 
z
M 52.59375 71.296875 
L 52.59375 62.3125 
Q 48.875 64.0625 45.09375 64.984375 
Q 41.3125 65.921875 37.59375 65.921875 
Q 27.828125 65.921875 22.671875 59.328125 
Q 17.53125 52.734375 16.796875 39.40625 
Q 19.671875 43.65625 24.015625 45.921875 
Q 28.375 48.1875 33.59375 48.1875 
Q 44.578125 48.1875 50.953125 41.515625 
Q 57.328125 34.859375 57.328125 23.390625 
Q 57.328125 12.15625 50.6875 5.359375 
Q 44.046875 -1.421875 33.015625 -1.421875 
Q 20.359375 -1.421875 13.671875 8.265625 
Q 6.984375 17.96875 6.984375 36.375 
Q 6.984375 53.65625 15.1875 63.9375 
Q 23.390625 74.21875 37.203125 74.21875 
Q 40.921875 74.21875 44.703125 73.484375 
Q 48.484375 72.75 52.59375 71.296875 
z
" id="DejaVuSans-36"/>
      </defs>
      <g transform="translate(31.5125 159.920262)scale(0.1 -0.1)">
       <use xlink:href="#DejaVuSans-36"/>
       <use x="63.623047" xlink:href="#DejaVuSans-30"/>
       <use x="127.246094" xlink:href="#DejaVuSans-30"/>
      </g>
     </g>
    </g>
    <g id="ytick_5">
     <g id="line2d_11">
      <g>
       <use style="stroke:#000000;stroke-width:0.8;" x="57.6" xlink:href="#mef0c565848" y="106.034087"/>
      </g>
     </g>
     <g id="text_12">
      <!-- 800 -->
      <defs>
       <path d="M 31.78125 34.625 
Q 24.75 34.625 20.71875 30.859375 
Q 16.703125 27.09375 16.703125 20.515625 
Q 16.703125 13.921875 20.71875 10.15625 
Q 24.75 6.390625 31.78125 6.390625 
Q 38.8125 6.390625 42.859375 10.171875 
Q 46.921875 13.96875 46.921875 20.515625 
Q 46.921875 27.09375 42.890625 30.859375 
Q 38.875 34.625 31.78125 34.625 
z
M 21.921875 38.8125 
Q 15.578125 40.375 12.03125 44.71875 
Q 8.5 49.078125 8.5 55.328125 
Q 8.5 64.0625 14.71875 69.140625 
Q 20.953125 74.21875 31.78125 74.21875 
Q 42.671875 74.21875 48.875 69.140625 
Q 55.078125 64.0625 55.078125 55.328125 
Q 55.078125 49.078125 51.53125 44.71875 
Q 48 40.375 41.703125 38.8125 
Q 48.828125 37.15625 52.796875 32.3125 
Q 56.78125 27.484375 56.78125 20.515625 
Q 56.78125 9.90625 50.3125 4.234375 
Q 43.84375 -1.421875 31.78125 -1.421875 
Q 19.734375 -1.421875 13.25 4.234375 
Q 6.78125 9.90625 6.78125 20.515625 
Q 6.78125 27.484375 10.78125 32.3125 
Q 14.796875 37.15625 21.921875 38.8125 
z
M 18.3125 54.390625 
Q 18.3125 48.734375 21.84375 45.5625 
Q 25.390625 42.390625 31.78125 42.390625 
Q 38.140625 42.390625 41.71875 45.5625 
Q 45.3125 48.734375 45.3125 54.390625 
Q 45.3125 60.0625 41.71875 63.234375 
Q 38.140625 66.40625 31.78125 66.40625 
Q 25.390625 66.40625 21.84375 63.234375 
Q 18.3125 60.0625 18.3125 54.390625 
z
" id="DejaVuSans-38"/>
      </defs>
      <g transform="translate(31.5125 109.833306)scale(0.1 -0.1)">
       <use xlink:href="#DejaVuSans-38"/>
       <use x="63.623047" xlink:href="#DejaVuSans-30"/>
       <use x="127.246094" xlink:href="#DejaVuSans-30"/>
      </g>
     </g>
    </g>
    <g id="ytick_6">
     <g id="line2d_12">
      <g>
       <use style="stroke:#000000;stroke-width:0.8;" x="57.6" xlink:href="#mef0c565848" y="55.94713"/>
      </g>
     </g>
     <g id="text_13">
      <!-- 1000 -->
      <g transform="translate(25.15 59.746349)scale(0.1 -0.1)">
       <use xlink:href="#DejaVuSans-31"/>
       <use x="63.623047" xlink:href="#DejaVuSans-30"/>
       <use x="127.246094" xlink:href="#DejaVuSans-30"/>
       <use x="190.869141" xlink:href="#DejaVuSans-30"/>
      </g>
     </g>
    </g>
    <g id="text_14">
     <!-- Capturing distance,  $ nm$ -->
     <defs>
      <path d="M 64.40625 67.28125 
L 64.40625 56.890625 
Q 59.421875 61.53125 53.78125 63.8125 
Q 48.140625 66.109375 41.796875 66.109375 
Q 29.296875 66.109375 22.65625 58.46875 
Q 16.015625 50.828125 16.015625 36.375 
Q 16.015625 21.96875 22.65625 14.328125 
Q 29.296875 6.6875 41.796875 6.6875 
Q 48.140625 6.6875 53.78125 8.984375 
Q 59.421875 11.28125 64.40625 15.921875 
L 64.40625 5.609375 
Q 59.234375 2.09375 53.4375 0.328125 
Q 47.65625 -1.421875 41.21875 -1.421875 
Q 24.65625 -1.421875 15.125 8.703125 
Q 5.609375 18.84375 5.609375 36.375 
Q 5.609375 53.953125 15.125 64.078125 
Q 24.65625 74.21875 41.21875 74.21875 
Q 47.75 74.21875 53.53125 72.484375 
Q 59.328125 70.75 64.40625 67.28125 
z
" id="DejaVuSans-43"/>
      <path d="M 18.109375 8.203125 
L 18.109375 -20.796875 
L 9.078125 -20.796875 
L 9.078125 54.6875 
L 18.109375 54.6875 
L 18.109375 46.390625 
Q 20.953125 51.265625 25.265625 53.625 
Q 29.59375 56 35.59375 56 
Q 45.5625 56 51.78125 48.09375 
Q 58.015625 40.1875 58.015625 27.296875 
Q 58.015625 14.40625 51.78125 6.484375 
Q 45.5625 -1.421875 35.59375 -1.421875 
Q 29.59375 -1.421875 25.265625 0.953125 
Q 20.953125 3.328125 18.109375 8.203125 
z
M 48.6875 27.296875 
Q 48.6875 37.203125 44.609375 42.84375 
Q 40.53125 48.484375 33.40625 48.484375 
Q 26.265625 48.484375 22.1875 42.84375 
Q 18.109375 37.203125 18.109375 27.296875 
Q 18.109375 17.390625 22.1875 11.75 
Q 26.265625 6.109375 33.40625 6.109375 
Q 40.53125 6.109375 44.609375 11.75 
Q 48.6875 17.390625 48.6875 27.296875 
z
" id="DejaVuSans-70"/>
      <path d="M 18.3125 70.21875 
L 18.3125 54.6875 
L 36.8125 54.6875 
L 36.8125 47.703125 
L 18.3125 47.703125 
L 18.3125 18.015625 
Q 18.3125 11.328125 20.140625 9.421875 
Q 21.96875 7.515625 27.59375 7.515625 
L 36.8125 7.515625 
L 36.8125 0 
L 27.59375 0 
Q 17.1875 0 13.234375 3.875 
Q 9.28125 7.765625 9.28125 18.015625 
L 9.28125 47.703125 
L 2.6875 47.703125 
L 2.6875 54.6875 
L 9.28125 54.6875 
L 9.28125 70.21875 
z
" id="DejaVuSans-74"/>
      <path d="M 54.890625 33.015625 
L 54.890625 0 
L 45.90625 0 
L 45.90625 32.71875 
Q 45.90625 40.484375 42.875 44.328125 
Q 39.84375 48.1875 33.796875 48.1875 
Q 26.515625 48.1875 22.3125 43.546875 
Q 18.109375 38.921875 18.109375 30.90625 
L 18.109375 0 
L 9.078125 0 
L 9.078125 54.6875 
L 18.109375 54.6875 
L 18.109375 46.1875 
Q 21.34375 51.125 25.703125 53.5625 
Q 30.078125 56 35.796875 56 
Q 45.21875 56 50.046875 50.171875 
Q 54.890625 44.34375 54.890625 33.015625 
z
" id="DejaVuSans-6e"/>
      <path d="M 45.40625 27.984375 
Q 45.40625 37.75 41.375 43.109375 
Q 37.359375 48.484375 30.078125 48.484375 
Q 22.859375 48.484375 18.828125 43.109375 
Q 14.796875 37.75 14.796875 27.984375 
Q 14.796875 18.265625 18.828125 12.890625 
Q 22.859375 7.515625 30.078125 7.515625 
Q 37.359375 7.515625 41.375 12.890625 
Q 45.40625 18.265625 45.40625 27.984375 
z
M 54.390625 6.78125 
Q 54.390625 -7.171875 48.1875 -13.984375 
Q 42 -20.796875 29.203125 -20.796875 
Q 24.46875 -20.796875 20.265625 -20.09375 
Q 16.0625 -19.390625 12.109375 -17.921875 
L 12.109375 -9.1875 
Q 16.0625 -11.328125 19.921875 -12.34375 
Q 23.78125 -13.375 27.78125 -13.375 
Q 36.625 -13.375 41.015625 -8.765625 
Q 45.40625 -4.15625 45.40625 5.171875 
L 45.40625 9.625 
Q 42.625 4.78125 38.28125 2.390625 
Q 33.9375 0 27.875 0 
Q 17.828125 0 11.671875 7.65625 
Q 5.515625 15.328125 5.515625 27.984375 
Q 5.515625 40.671875 11.671875 48.328125 
Q 17.828125 56 27.875 56 
Q 33.9375 56 38.28125 53.609375 
Q 42.625 51.21875 45.40625 46.390625 
L 45.40625 54.6875 
L 54.390625 54.6875 
z
" id="DejaVuSans-67"/>
     </defs>
     <g transform="translate(19.05 234.778)rotate(-90)scale(0.1 -0.1)">
      <use transform="translate(0 0.015625)" xlink:href="#DejaVuSans-43"/>
      <use transform="translate(69.824219 0.015625)" xlink:href="#DejaVuSans-61"/>
      <use transform="translate(131.103516 0.015625)" xlink:href="#DejaVuSans-70"/>
      <use transform="translate(194.580078 0.015625)" xlink:href="#DejaVuSans-74"/>
      <use transform="translate(233.789062 0.015625)" xlink:href="#DejaVuSans-75"/>
      <use transform="translate(297.167969 0.015625)" xlink:href="#DejaVuSans-72"/>
      <use transform="translate(338.28125 0.015625)" xlink:href="#DejaVuSans-69"/>
      <use transform="translate(366.064453 0.015625)" xlink:href="#DejaVuSans-6e"/>
      <use transform="translate(429.443359 0.015625)" xlink:href="#DejaVuSans-67"/>
      <use transform="translate(492.919922 0.015625)" xlink:href="#DejaVuSans-20"/>
      <use transform="translate(524.707031 0.015625)" xlink:href="#DejaVuSans-64"/>
      <use transform="translate(588.183594 0.015625)" xlink:href="#DejaVuSans-69"/>
      <use transform="translate(615.966797 0.015625)" xlink:href="#DejaVuSans-73"/>
      <use transform="translate(668.066406 0.015625)" xlink:href="#DejaVuSans-74"/>
      <use transform="translate(707.275391 0.015625)" xlink:href="#DejaVuSans-61"/>
      <use transform="translate(768.554688 0.015625)" xlink:href="#DejaVuSans-6e"/>
      <use transform="translate(831.933594 0.015625)" xlink:href="#DejaVuSans-63"/>
      <use transform="translate(886.914062 0.015625)" xlink:href="#DejaVuSans-65"/>
      <use transform="translate(948.4375 0.015625)" xlink:href="#DejaVuSans-2c"/>
      <use transform="translate(980.224609 0.015625)" xlink:href="#DejaVuSans-20"/>
      <use transform="translate(1012.011719 0.015625)" xlink:href="#DejaVuSans-20"/>
      <use transform="translate(1043.798828 0.015625)" xlink:href="#DejaVuSans-Oblique-6e"/>
      <use transform="translate(1107.177734 0.015625)" xlink:href="#DejaVuSans-Oblique-6d"/>
     </g>
    </g>
   </g>
   <g id="line2d_13">
    <path clip-path="url(#p7b8d58c27c)" d="M 68.596364 178.409739 
L 82.341818 142.597565 
L 93.796364 126.694957 
L 105.250909 114.423652 
L 128.16 92.886261 
L 151.069091 85.498435 
L 196.887273 66.590609 
L 288.523636 53.568 
" style="fill:none;stroke:#0000ff;stroke-linecap:square;stroke-width:1.5;"/>
    <defs>
     <path d="M 4 0 
L -4 -4 
L -4 4 
z
" id="m25693f80de" style="stroke:#0000ff;stroke-linejoin:miter;"/>
    </defs>
    <g clip-path="url(#p7b8d58c27c)">
     <use style="fill:#0000ff;stroke:#0000ff;stroke-linejoin:miter;" x="68.596364" xlink:href="#m25693f80de" y="178.409739"/>
     <use style="fill:#0000ff;stroke:#0000ff;stroke-linejoin:miter;" x="82.341818" xlink:href="#m25693f80de" y="142.597565"/>
     <use style="fill:#0000ff;stroke:#0000ff;stroke-linejoin:miter;" x="93.796364" xlink:href="#m25693f80de" y="126.694957"/>
     <use style="fill:#0000ff;stroke:#0000ff;stroke-linejoin:miter;" x="105.250909" xlink:href="#m25693f80de" y="114.423652"/>
     <use style="fill:#0000ff;stroke:#0000ff;stroke-linejoin:miter;" x="128.16" xlink:href="#m25693f80de" y="92.886261"/>
     <use style="fill:#0000ff;stroke:#0000ff;stroke-linejoin:miter;" x="151.069091" xlink:href="#m25693f80de" y="85.498435"/>
     <use style="fill:#0000ff;stroke:#0000ff;stroke-linejoin:miter;" x="196.887273" xlink:href="#m25693f80de" y="66.590609"/>
     <use style="fill:#0000ff;stroke:#0000ff;stroke-linejoin:miter;" x="288.523636" xlink:href="#m25693f80de" y="53.568"/>
    </g>
   </g>
   <g id="line2d_14">
    <path clip-path="url(#p7b8d58c27c)" d="M 68.596364 278.70887 
L 82.341818 276.830609 
L 93.796364 276.204522 
L 105.250909 275.077565 
L 128.16 273.700174 
L 151.069091 274.701913 
L 196.887273 287.474087 
L 288.523636 293.10887 
" style="fill:none;stroke:#008000;stroke-linecap:square;stroke-width:1.5;"/>
    <defs>
     <path d="M -4 -0 
L 4 4 
L 4 -4 
z
" id="m6d15a66058" style="stroke:#008000;stroke-linejoin:miter;"/>
    </defs>
    <g clip-path="url(#p7b8d58c27c)">
     <use style="fill:#008000;stroke:#008000;stroke-linejoin:miter;" x="68.596364" xlink:href="#m6d15a66058" y="278.70887"/>
     <use style="fill:#008000;stroke:#008000;stroke-linejoin:miter;" x="82.341818" xlink:href="#m6d15a66058" y="276.830609"/>
     <use style="fill:#008000;stroke:#008000;stroke-linejoin:miter;" x="93.796364" xlink:href="#m6d15a66058" y="276.204522"/>
     <use style="fill:#008000;stroke:#008000;stroke-linejoin:miter;" x="105.250909" xlink:href="#m6d15a66058" y="275.077565"/>
     <use style="fill:#008000;stroke:#008000;stroke-linejoin:miter;" x="128.16" xlink:href="#m6d15a66058" y="273.700174"/>
     <use style="fill:#008000;stroke:#008000;stroke-linejoin:miter;" x="151.069091" xlink:href="#m6d15a66058" y="274.701913"/>
     <use style="fill:#008000;stroke:#008000;stroke-linejoin:miter;" x="196.887273" xlink:href="#m6d15a66058" y="287.474087"/>
     <use style="fill:#008000;stroke:#008000;stroke-linejoin:miter;" x="288.523636" xlink:href="#m6d15a66058" y="293.10887"/>
    </g>
   </g>
   <g id="line2d_15">
    <path clip-path="url(#p7b8d58c27c)" d="M 68.596364 293.234087 
L 82.341818 294.486261 
L 93.796364 292.482783 
L 105.250909 293.609739 
L 128.16 294.98713 
L 151.069091 295.488 
L 196.887273 293.609739 
L 288.523636 293.10887 
" style="fill:none;stroke:#ff0000;stroke-linecap:square;stroke-width:1.5;"/>
    <defs>
     <path d="M 0 -4 
L -4 4 
L 4 4 
z
" id="m9637021d70" style="stroke:#ff0000;stroke-linejoin:miter;"/>
    </defs>
    <g clip-path="url(#p7b8d58c27c)">
     <use style="fill:#ff0000;stroke:#ff0000;stroke-linejoin:miter;" x="68.596364" xlink:href="#m9637021d70" y="293.234087"/>
     <use style="fill:#ff0000;stroke:#ff0000;stroke-linejoin:miter;" x="82.341818" xlink:href="#m9637021d70" y="294.486261"/>
     <use style="fill:#ff0000;stroke:#ff0000;stroke-linejoin:miter;" x="93.796364" xlink:href="#m9637021d70" y="292.482783"/>
     <use style="fill:#ff0000;stroke:#ff0000;stroke-linejoin:miter;" x="105.250909" xlink:href="#m9637021d70" y="293.609739"/>
     <use style="fill:#ff0000;stroke:#ff0000;stroke-linejoin:miter;" x="128.16" xlink:href="#m9637021d70" y="294.98713"/>
     <use style="fill:#ff0000;stroke:#ff0000;stroke-linejoin:miter;" x="151.069091" xlink:href="#m9637021d70" y="295.488"/>
     <use style="fill:#ff0000;stroke:#ff0000;stroke-linejoin:miter;" x="196.887273" xlink:href="#m9637021d70" y="293.609739"/>
     <use style="fill:#ff0000;stroke:#ff0000;stroke-linejoin:miter;" x="288.523636" xlink:href="#m9637021d70" y="293.10887"/>
    </g>
   </g>
   <g id="patch_3">
    <path d="M 57.6 307.584 
L 57.6 41.472 
" style="fill:none;stroke:#000000;stroke-linecap:square;stroke-linejoin:miter;stroke-width:0.8;"/>
   </g>
   <g id="patch_4">
    <path d="M 299.52 307.584 
L 299.52 41.472 
" style="fill:none;stroke:#000000;stroke-linecap:square;stroke-linejoin:miter;stroke-width:0.8;"/>
   </g>
   <g id="patch_5">
    <path d="M 57.6 307.584 
L 299.52 307.584 
" style="fill:none;stroke:#000000;stroke-linecap:square;stroke-linejoin:miter;stroke-width:0.8;"/>
   </g>
   <g id="patch_6">
    <path d="M 57.6 41.472 
L 299.52 41.472 
" style="fill:none;stroke:#000000;stroke-linecap:square;stroke-linejoin:miter;stroke-width:0.8;"/>
   </g>
   <g id="text_15">
    <!-- OX part of external  -->
    <defs>
     <path d="M 39.40625 66.21875 
Q 28.65625 66.21875 22.328125 58.203125 
Q 16.015625 50.203125 16.015625 36.375 
Q 16.015625 22.609375 22.328125 14.59375 
Q 28.65625 6.59375 39.40625 6.59375 
Q 50.140625 6.59375 56.421875 14.59375 
Q 62.703125 22.609375 62.703125 36.375 
Q 62.703125 50.203125 56.421875 58.203125 
Q 50.140625 66.21875 39.40625 66.21875 
z
M 39.40625 74.21875 
Q 54.734375 74.21875 63.90625 63.9375 
Q 73.09375 53.65625 73.09375 36.375 
Q 73.09375 19.140625 63.90625 8.859375 
Q 54.734375 -1.421875 39.40625 -1.421875 
Q 24.03125 -1.421875 14.8125 8.828125 
Q 5.609375 19.09375 5.609375 36.375 
Q 5.609375 53.65625 14.8125 63.9375 
Q 24.03125 74.21875 39.40625 74.21875 
z
" id="DejaVuSans-4f"/>
     <path d="M 6.296875 72.90625 
L 16.890625 72.90625 
L 35.015625 45.796875 
L 53.21875 72.90625 
L 63.8125 72.90625 
L 40.375 37.890625 
L 65.375 0 
L 54.78125 0 
L 34.28125 31 
L 13.625 0 
L 2.984375 0 
L 29 38.921875 
z
" id="DejaVuSans-58"/>
     <path d="M 30.609375 48.390625 
Q 23.390625 48.390625 19.1875 42.75 
Q 14.984375 37.109375 14.984375 27.296875 
Q 14.984375 17.484375 19.15625 11.84375 
Q 23.34375 6.203125 30.609375 6.203125 
Q 37.796875 6.203125 41.984375 11.859375 
Q 46.1875 17.53125 46.1875 27.296875 
Q 46.1875 37.015625 41.984375 42.703125 
Q 37.796875 48.390625 30.609375 48.390625 
z
M 30.609375 56 
Q 42.328125 56 49.015625 48.375 
Q 55.71875 40.765625 55.71875 27.296875 
Q 55.71875 13.875 49.015625 6.21875 
Q 42.328125 -1.421875 30.609375 -1.421875 
Q 18.84375 -1.421875 12.171875 6.21875 
Q 5.515625 13.875 5.515625 27.296875 
Q 5.515625 40.765625 12.171875 48.375 
Q 18.84375 56 30.609375 56 
z
" id="DejaVuSans-6f"/>
     <path d="M 37.109375 75.984375 
L 37.109375 68.5 
L 28.515625 68.5 
Q 23.6875 68.5 21.796875 66.546875 
Q 19.921875 64.59375 19.921875 59.515625 
L 19.921875 54.6875 
L 34.71875 54.6875 
L 34.71875 47.703125 
L 19.921875 47.703125 
L 19.921875 0 
L 10.890625 0 
L 10.890625 47.703125 
L 2.296875 47.703125 
L 2.296875 54.6875 
L 10.890625 54.6875 
L 10.890625 58.5 
Q 10.890625 67.625 15.140625 71.796875 
Q 19.390625 75.984375 28.609375 75.984375 
z
" id="DejaVuSans-66"/>
     <path d="M 54.890625 54.6875 
L 35.109375 28.078125 
L 55.90625 0 
L 45.3125 0 
L 29.390625 21.484375 
L 13.484375 0 
L 2.875 0 
L 24.125 28.609375 
L 4.6875 54.6875 
L 15.28125 54.6875 
L 29.78125 35.203125 
L 44.28125 54.6875 
z
" id="DejaVuSans-78"/>
    </defs>
    <g transform="translate(322.56 143.63875)scale(0.08 -0.08)">
     <use xlink:href="#DejaVuSans-4f"/>
     <use x="78.617188" xlink:href="#DejaVuSans-58"/>
     <use x="147.123047" xlink:href="#DejaVuSans-20"/>
     <use x="178.910156" xlink:href="#DejaVuSans-70"/>
     <use x="242.386719" xlink:href="#DejaVuSans-61"/>
     <use x="303.666016" xlink:href="#DejaVuSans-72"/>
     <use x="344.779297" xlink:href="#DejaVuSans-74"/>
     <use x="383.988281" xlink:href="#DejaVuSans-20"/>
     <use x="415.775391" xlink:href="#DejaVuSans-6f"/>
     <use x="476.957031" xlink:href="#DejaVuSans-66"/>
     <use x="512.162109" xlink:href="#DejaVuSans-20"/>
     <use x="543.949219" xlink:href="#DejaVuSans-65"/>
     <use x="605.457031" xlink:href="#DejaVuSans-78"/>
     <use x="664.636719" xlink:href="#DejaVuSans-74"/>
     <use x="703.845703" xlink:href="#DejaVuSans-65"/>
     <use x="765.369141" xlink:href="#DejaVuSans-72"/>
     <use x="806.466797" xlink:href="#DejaVuSans-6e"/>
     <use x="869.845703" xlink:href="#DejaVuSans-61"/>
     <use x="931.125" xlink:href="#DejaVuSans-6c"/>
     <use x="958.908203" xlink:href="#DejaVuSans-20"/>
    </g>
    <!-- magnetic field, 0 $ Gs$ -->
    <defs>
     <path d="M 52 44.1875 
Q 55.375 50.25 60.0625 53.125 
Q 64.75 56 71.09375 56 
Q 79.640625 56 84.28125 50.015625 
Q 88.921875 44.046875 88.921875 33.015625 
L 88.921875 0 
L 79.890625 0 
L 79.890625 32.71875 
Q 79.890625 40.578125 77.09375 44.375 
Q 74.3125 48.1875 68.609375 48.1875 
Q 61.625 48.1875 57.5625 43.546875 
Q 53.515625 38.921875 53.515625 30.90625 
L 53.515625 0 
L 44.484375 0 
L 44.484375 32.71875 
Q 44.484375 40.625 41.703125 44.40625 
Q 38.921875 48.1875 33.109375 48.1875 
Q 26.21875 48.1875 22.15625 43.53125 
Q 18.109375 38.875 18.109375 30.90625 
L 18.109375 0 
L 9.078125 0 
L 9.078125 54.6875 
L 18.109375 54.6875 
L 18.109375 46.1875 
Q 21.1875 51.21875 25.484375 53.609375 
Q 29.78125 56 35.6875 56 
Q 41.65625 56 45.828125 52.96875 
Q 50 49.953125 52 44.1875 
z
" id="DejaVuSans-6d"/>
     <path d="M 54.59375 10.890625 
L 58.40625 29.984375 
L 42.1875 29.984375 
L 43.703125 38.09375 
L 69.578125 38.09375 
L 63.28125 6 
Q 56.78125 2.4375 49.109375 0.5 
Q 41.453125 -1.421875 33.6875 -1.421875 
Q 19.96875 -1.421875 12.234375 6.1875 
Q 4.5 13.8125 4.5 27.390625 
Q 4.5 38.671875 9.203125 48.84375 
Q 13.921875 59.03125 22.21875 65.828125 
Q 27.4375 70.0625 33.640625 72.140625 
Q 39.84375 74.21875 47.40625 74.21875 
Q 54.25 74.21875 60.515625 72.484375 
Q 66.796875 70.75 72.515625 67.28125 
L 70.515625 56.78125 
Q 66.109375 61.375 60.203125 63.796875 
Q 54.296875 66.21875 47.609375 66.21875 
Q 39.84375 66.21875 33.9375 63.25 
Q 28.03125 60.296875 23.390625 54.109375 
Q 19.4375 48.828125 17.15625 41.671875 
Q 14.890625 34.515625 14.890625 27.09375 
Q 14.890625 16.890625 20.109375 11.734375 
Q 25.34375 6.59375 35.6875 6.59375 
Q 40.875 6.59375 45.703125 7.6875 
Q 50.53125 8.796875 54.59375 10.890625 
z
" id="DejaVuSans-Oblique-47"/>
     <path d="M 50 53.078125 
L 48.296875 44.578125 
Q 44.734375 46.53125 40.765625 47.5 
Q 36.8125 48.484375 32.625 48.484375 
Q 25.53125 48.484375 21.453125 46.0625 
Q 17.390625 43.65625 17.390625 39.5 
Q 17.390625 34.671875 26.859375 32.078125 
Q 27.59375 31.890625 27.9375 31.78125 
L 30.8125 30.90625 
Q 39.796875 28.421875 42.796875 25.6875 
Q 45.796875 22.953125 45.796875 18.21875 
Q 45.796875 9.515625 38.890625 4.046875 
Q 31.984375 -1.421875 20.796875 -1.421875 
Q 16.453125 -1.421875 11.671875 -0.578125 
Q 6.890625 0.25 1.125 2 
L 2.875 11.28125 
Q 7.8125 8.734375 12.59375 7.421875 
Q 17.390625 6.109375 21.78125 6.109375 
Q 28.375 6.109375 32.5 8.9375 
Q 36.625 11.765625 36.625 16.109375 
Q 36.625 20.796875 25.78125 23.6875 
L 24.859375 23.921875 
L 21.78125 24.703125 
Q 14.9375 26.515625 11.765625 29.46875 
Q 8.59375 32.421875 8.59375 37.015625 
Q 8.59375 45.75 15.15625 50.875 
Q 21.734375 56 33.015625 56 
Q 37.453125 56 41.671875 55.265625 
Q 45.90625 54.546875 50 53.078125 
z
" id="DejaVuSans-Oblique-73"/>
    </defs>
    <g transform="translate(322.56 152.5985)scale(0.08 -0.08)">
     <use transform="translate(0 0.015625)" xlink:href="#DejaVuSans-6d"/>
     <use transform="translate(97.412109 0.015625)" xlink:href="#DejaVuSans-61"/>
     <use transform="translate(158.691406 0.015625)" xlink:href="#DejaVuSans-67"/>
     <use transform="translate(222.167969 0.015625)" xlink:href="#DejaVuSans-6e"/>
     <use transform="translate(285.546875 0.015625)" xlink:href="#DejaVuSans-65"/>
     <use transform="translate(347.070312 0.015625)" xlink:href="#DejaVuSans-74"/>
     <use transform="translate(386.279297 0.015625)" xlink:href="#DejaVuSans-69"/>
     <use transform="translate(414.0625 0.015625)" xlink:href="#DejaVuSans-63"/>
     <use transform="translate(469.042969 0.015625)" xlink:href="#DejaVuSans-20"/>
     <use transform="translate(500.830078 0.015625)" xlink:href="#DejaVuSans-66"/>
     <use transform="translate(536.035156 0.015625)" xlink:href="#DejaVuSans-69"/>
     <use transform="translate(563.818359 0.015625)" xlink:href="#DejaVuSans-65"/>
     <use transform="translate(625.341797 0.015625)" xlink:href="#DejaVuSans-6c"/>
     <use transform="translate(653.125 0.015625)" xlink:href="#DejaVuSans-64"/>
     <use transform="translate(716.601562 0.015625)" xlink:href="#DejaVuSans-2c"/>
     <use transform="translate(748.388672 0.015625)" xlink:href="#DejaVuSans-20"/>
     <use transform="translate(780.175781 0.015625)" xlink:href="#DejaVuSans-30"/>
     <use transform="translate(843.798828 0.015625)" xlink:href="#DejaVuSans-20"/>
     <use transform="translate(875.585938 0.015625)" xlink:href="#DejaVuSans-Oblique-47"/>
     <use transform="translate(953.076172 0.015625)" xlink:href="#DejaVuSans-Oblique-73"/>
    </g>
    <!--  -->
    <g transform="translate(322.56 161.573)scale(0.08 -0.08)"/>
    <!-- OZ part of external  -->
    <defs>
     <path d="M 5.609375 72.90625 
L 62.890625 72.90625 
L 62.890625 65.375 
L 16.796875 8.296875 
L 64.015625 8.296875 
L 64.015625 0 
L 4.5 0 
L 4.5 7.515625 
L 50.59375 64.59375 
L 5.609375 64.59375 
z
" id="DejaVuSans-5a"/>
    </defs>
    <g transform="translate(322.56 170.53125)scale(0.08 -0.08)">
     <use xlink:href="#DejaVuSans-4f"/>
     <use x="78.710938" xlink:href="#DejaVuSans-5a"/>
     <use x="147.216797" xlink:href="#DejaVuSans-20"/>
     <use x="179.003906" xlink:href="#DejaVuSans-70"/>
     <use x="242.480469" xlink:href="#DejaVuSans-61"/>
     <use x="303.759766" xlink:href="#DejaVuSans-72"/>
     <use x="344.873047" xlink:href="#DejaVuSans-74"/>
     <use x="384.082031" xlink:href="#DejaVuSans-20"/>
     <use x="415.869141" xlink:href="#DejaVuSans-6f"/>
     <use x="477.050781" xlink:href="#DejaVuSans-66"/>
     <use x="512.255859" xlink:href="#DejaVuSans-20"/>
     <use x="544.042969" xlink:href="#DejaVuSans-65"/>
     <use x="605.550781" xlink:href="#DejaVuSans-78"/>
     <use x="664.730469" xlink:href="#DejaVuSans-74"/>
     <use x="703.939453" xlink:href="#DejaVuSans-65"/>
     <use x="765.462891" xlink:href="#DejaVuSans-72"/>
     <use x="806.560547" xlink:href="#DejaVuSans-6e"/>
     <use x="869.939453" xlink:href="#DejaVuSans-61"/>
     <use x="931.21875" xlink:href="#DejaVuSans-6c"/>
     <use x="959.001953" xlink:href="#DejaVuSans-20"/>
    </g>
    <!-- magnetic field, 0 $ Gs$ -->
    <g transform="translate(322.56 179.491)scale(0.08 -0.08)">
     <use transform="translate(0 0.015625)" xlink:href="#DejaVuSans-6d"/>
     <use transform="translate(97.412109 0.015625)" xlink:href="#DejaVuSans-61"/>
     <use transform="translate(158.691406 0.015625)" xlink:href="#DejaVuSans-67"/>
     <use transform="translate(222.167969 0.015625)" xlink:href="#DejaVuSans-6e"/>
     <use transform="translate(285.546875 0.015625)" xlink:href="#DejaVuSans-65"/>
     <use transform="translate(347.070312 0.015625)" xlink:href="#DejaVuSans-74"/>
     <use transform="translate(386.279297 0.015625)" xlink:href="#DejaVuSans-69"/>
     <use transform="translate(414.0625 0.015625)" xlink:href="#DejaVuSans-63"/>
     <use transform="translate(469.042969 0.015625)" xlink:href="#DejaVuSans-20"/>
     <use transform="translate(500.830078 0.015625)" xlink:href="#DejaVuSans-66"/>
     <use transform="translate(536.035156 0.015625)" xlink:href="#DejaVuSans-69"/>
     <use transform="translate(563.818359 0.015625)" xlink:href="#DejaVuSans-65"/>
     <use transform="translate(625.341797 0.015625)" xlink:href="#DejaVuSans-6c"/>
     <use transform="translate(653.125 0.015625)" xlink:href="#DejaVuSans-64"/>
     <use transform="translate(716.601562 0.015625)" xlink:href="#DejaVuSans-2c"/>
     <use transform="translate(748.388672 0.015625)" xlink:href="#DejaVuSans-20"/>
     <use transform="translate(780.175781 0.015625)" xlink:href="#DejaVuSans-30"/>
     <use transform="translate(843.798828 0.015625)" xlink:href="#DejaVuSans-20"/>
     <use transform="translate(875.585938 0.015625)" xlink:href="#DejaVuSans-Oblique-47"/>
     <use transform="translate(953.076172 0.015625)" xlink:href="#DejaVuSans-Oblique-73"/>
    </g>
    <!--  -->
    <g transform="translate(322.56 188.4655)scale(0.08 -0.08)"/>
    <!-- BMN particles radius, 50 $ nm$ -->
    <defs>
     <path d="M 19.671875 34.8125 
L 19.671875 8.109375 
L 35.5 8.109375 
Q 43.453125 8.109375 47.28125 11.40625 
Q 51.125 14.703125 51.125 21.484375 
Q 51.125 28.328125 47.28125 31.5625 
Q 43.453125 34.8125 35.5 34.8125 
z
M 19.671875 64.796875 
L 19.671875 42.828125 
L 34.28125 42.828125 
Q 41.5 42.828125 45.03125 45.53125 
Q 48.578125 48.25 48.578125 53.8125 
Q 48.578125 59.328125 45.03125 62.0625 
Q 41.5 64.796875 34.28125 64.796875 
z
M 9.8125 72.90625 
L 35.015625 72.90625 
Q 46.296875 72.90625 52.390625 68.21875 
Q 58.5 63.53125 58.5 54.890625 
Q 58.5 48.1875 55.375 44.234375 
Q 52.25 40.28125 46.1875 39.3125 
Q 53.46875 37.75 57.5 32.78125 
Q 61.53125 27.828125 61.53125 20.40625 
Q 61.53125 10.640625 54.890625 5.3125 
Q 48.25 0 35.984375 0 
L 9.8125 0 
z
" id="DejaVuSans-42"/>
     <path d="M 9.8125 72.90625 
L 24.515625 72.90625 
L 43.109375 23.296875 
L 61.8125 72.90625 
L 76.515625 72.90625 
L 76.515625 0 
L 66.890625 0 
L 66.890625 64.015625 
L 48.09375 14.015625 
L 38.1875 14.015625 
L 19.390625 64.015625 
L 19.390625 0 
L 9.8125 0 
z
" id="DejaVuSans-4d"/>
     <path d="M 9.8125 72.90625 
L 23.09375 72.90625 
L 55.421875 11.921875 
L 55.421875 72.90625 
L 64.984375 72.90625 
L 64.984375 0 
L 51.703125 0 
L 19.390625 60.984375 
L 19.390625 0 
L 9.8125 0 
z
" id="DejaVuSans-4e"/>
    </defs>
    <g transform="translate(322.56 197.42525)scale(0.08 -0.08)">
     <use transform="translate(0 0.015625)" xlink:href="#DejaVuSans-42"/>
     <use transform="translate(68.603516 0.015625)" xlink:href="#DejaVuSans-4d"/>
     <use transform="translate(154.882812 0.015625)" xlink:href="#DejaVuSans-4e"/>
     <use transform="translate(229.6875 0.015625)" xlink:href="#DejaVuSans-20"/>
     <use transform="translate(261.474609 0.015625)" xlink:href="#DejaVuSans-70"/>
     <use transform="translate(324.951172 0.015625)" xlink:href="#DejaVuSans-61"/>
     <use transform="translate(386.230469 0.015625)" xlink:href="#DejaVuSans-72"/>
     <use transform="translate(427.34375 0.015625)" xlink:href="#DejaVuSans-74"/>
     <use transform="translate(466.552734 0.015625)" xlink:href="#DejaVuSans-69"/>
     <use transform="translate(494.335938 0.015625)" xlink:href="#DejaVuSans-63"/>
     <use transform="translate(549.316406 0.015625)" xlink:href="#DejaVuSans-6c"/>
     <use transform="translate(577.099609 0.015625)" xlink:href="#DejaVuSans-65"/>
     <use transform="translate(638.623047 0.015625)" xlink:href="#DejaVuSans-73"/>
     <use transform="translate(690.722656 0.015625)" xlink:href="#DejaVuSans-20"/>
     <use transform="translate(722.509766 0.015625)" xlink:href="#DejaVuSans-72"/>
     <use transform="translate(763.623047 0.015625)" xlink:href="#DejaVuSans-61"/>
     <use transform="translate(824.902344 0.015625)" xlink:href="#DejaVuSans-64"/>
     <use transform="translate(888.378906 0.015625)" xlink:href="#DejaVuSans-69"/>
     <use transform="translate(916.162109 0.015625)" xlink:href="#DejaVuSans-75"/>
     <use transform="translate(979.541016 0.015625)" xlink:href="#DejaVuSans-73"/>
     <use transform="translate(1031.640625 0.015625)" xlink:href="#DejaVuSans-2c"/>
     <use transform="translate(1063.427734 0.015625)" xlink:href="#DejaVuSans-20"/>
     <use transform="translate(1095.214844 0.015625)" xlink:href="#DejaVuSans-35"/>
     <use transform="translate(1158.837891 0.015625)" xlink:href="#DejaVuSans-30"/>
     <use transform="translate(1222.460938 0.015625)" xlink:href="#DejaVuSans-20"/>
     <use transform="translate(1254.248047 0.015625)" xlink:href="#DejaVuSans-Oblique-6e"/>
     <use transform="translate(1317.626953 0.015625)" xlink:href="#DejaVuSans-Oblique-6d"/>
    </g>
    <!--  -->
    <g transform="translate(322.56 206.39975)scale(0.08 -0.08)"/>
    <!-- Magnetic sensitiveness  -->
    <defs>
     <path d="M 2.984375 54.6875 
L 12.5 54.6875 
L 29.59375 8.796875 
L 46.6875 54.6875 
L 56.203125 54.6875 
L 35.6875 0 
L 23.484375 0 
z
" id="DejaVuSans-76"/>
    </defs>
    <g transform="translate(322.56 215.358)scale(0.08 -0.08)">
     <use xlink:href="#DejaVuSans-4d"/>
     <use x="86.279297" xlink:href="#DejaVuSans-61"/>
     <use x="147.558594" xlink:href="#DejaVuSans-67"/>
     <use x="211.035156" xlink:href="#DejaVuSans-6e"/>
     <use x="274.414062" xlink:href="#DejaVuSans-65"/>
     <use x="335.9375" xlink:href="#DejaVuSans-74"/>
     <use x="375.146484" xlink:href="#DejaVuSans-69"/>
     <use x="402.929688" xlink:href="#DejaVuSans-63"/>
     <use x="457.910156" xlink:href="#DejaVuSans-20"/>
     <use x="489.697266" xlink:href="#DejaVuSans-73"/>
     <use x="541.796875" xlink:href="#DejaVuSans-65"/>
     <use x="603.320312" xlink:href="#DejaVuSans-6e"/>
     <use x="666.699219" xlink:href="#DejaVuSans-73"/>
     <use x="718.798828" xlink:href="#DejaVuSans-69"/>
     <use x="746.582031" xlink:href="#DejaVuSans-74"/>
     <use x="785.791016" xlink:href="#DejaVuSans-69"/>
     <use x="813.574219" xlink:href="#DejaVuSans-76"/>
     <use x="872.753906" xlink:href="#DejaVuSans-65"/>
     <use x="934.277344" xlink:href="#DejaVuSans-6e"/>
     <use x="997.65625" xlink:href="#DejaVuSans-65"/>
     <use x="1059.179688" xlink:href="#DejaVuSans-73"/>
     <use x="1111.279297" xlink:href="#DejaVuSans-73"/>
     <use x="1163.378906" xlink:href="#DejaVuSans-20"/>
    </g>
    <!-- of vesicule, 4 $ -\log(\chi)$ -->
    <defs>
     <path d="M 10.59375 35.5 
L 73.1875 35.5 
L 73.1875 27.203125 
L 10.59375 27.203125 
z
" id="DejaVuSans-2212"/>
     <path d="M 31 75.875 
Q 24.46875 64.65625 21.28125 53.65625 
Q 18.109375 42.671875 18.109375 31.390625 
Q 18.109375 20.125 21.3125 9.0625 
Q 24.515625 -2 31 -13.1875 
L 23.1875 -13.1875 
Q 15.875 -1.703125 12.234375 9.375 
Q 8.59375 20.453125 8.59375 31.390625 
Q 8.59375 42.28125 12.203125 53.3125 
Q 15.828125 64.359375 23.1875 75.875 
z
" id="DejaVuSans-28"/>
     <path d="M 30.03125 -12.203125 
L 26.421875 6.5 
L 6.15625 -20.84375 
L -4.4375 -20.84375 
L 24.265625 17.828125 
L 19.828125 40.828125 
Q 18.65625 46.96875 11.140625 46.96875 
L 8.734375 46.96875 
L 10.203125 54.6875 
L 13.625 54.59375 
Q 26.171875 54.25 27.734375 46.09375 
L 31.34375 27.390625 
L 51.609375 54.734375 
L 62.203125 54.734375 
L 33.5 16.0625 
L 37.9375 -6.9375 
Q 39.109375 -13.09375 46.625 -13.09375 
L 49.03125 -13.09375 
L 47.5625 -20.796875 
L 44.140625 -20.703125 
Q 31.59375 -20.359375 30.03125 -12.203125 
z
" id="DejaVuSans-Oblique-3c7"/>
     <path d="M 8.015625 75.875 
L 15.828125 75.875 
Q 23.140625 64.359375 26.78125 53.3125 
Q 30.421875 42.28125 30.421875 31.390625 
Q 30.421875 20.453125 26.78125 9.375 
Q 23.140625 -1.703125 15.828125 -13.1875 
L 8.015625 -13.1875 
Q 14.5 -2 17.703125 9.0625 
Q 20.90625 20.125 20.90625 31.390625 
Q 20.90625 42.671875 17.703125 53.65625 
Q 14.5 64.65625 8.015625 75.875 
z
" id="DejaVuSans-29"/>
    </defs>
    <g transform="translate(322.56 224.31775)scale(0.08 -0.08)">
     <use transform="translate(0 0.015625)" xlink:href="#DejaVuSans-6f"/>
     <use transform="translate(61.181641 0.015625)" xlink:href="#DejaVuSans-66"/>
     <use transform="translate(96.386719 0.015625)" xlink:href="#DejaVuSans-20"/>
     <use transform="translate(128.173828 0.015625)" xlink:href="#DejaVuSans-76"/>
     <use transform="translate(187.353516 0.015625)" xlink:href="#DejaVuSans-65"/>
     <use transform="translate(248.876953 0.015625)" xlink:href="#DejaVuSans-73"/>
     <use transform="translate(300.976562 0.015625)" xlink:href="#DejaVuSans-69"/>
     <use transform="translate(328.759766 0.015625)" xlink:href="#DejaVuSans-63"/>
     <use transform="translate(383.740234 0.015625)" xlink:href="#DejaVuSans-75"/>
     <use transform="translate(447.119141 0.015625)" xlink:href="#DejaVuSans-6c"/>
     <use transform="translate(474.902344 0.015625)" xlink:href="#DejaVuSans-65"/>
     <use transform="translate(536.425781 0.015625)" xlink:href="#DejaVuSans-2c"/>
     <use transform="translate(568.212891 0.015625)" xlink:href="#DejaVuSans-20"/>
     <use transform="translate(600 0.015625)" xlink:href="#DejaVuSans-34"/>
     <use transform="translate(663.623047 0.015625)" xlink:href="#DejaVuSans-20"/>
     <use transform="translate(695.410156 0.015625)" xlink:href="#DejaVuSans-2212"/>
     <use transform="translate(779.199219 0.015625)" xlink:href="#DejaVuSans-6c"/>
     <use transform="translate(806.982422 0.015625)" xlink:href="#DejaVuSans-6f"/>
     <use transform="translate(868.164062 0.015625)" xlink:href="#DejaVuSans-67"/>
     <use transform="translate(931.640625 0.015625)" xlink:href="#DejaVuSans-28"/>
     <use transform="translate(970.654297 0.015625)" xlink:href="#DejaVuSans-Oblique-3c7"/>
     <use transform="translate(1029.833984 0.015625)" xlink:href="#DejaVuSans-29"/>
    </g>
    <!--  -->
    <g transform="translate(322.56 233.29225)scale(0.08 -0.08)"/>
    <!-- Dynamic viscosity  -->
    <defs>
     <path d="M 19.671875 64.796875 
L 19.671875 8.109375 
L 31.59375 8.109375 
Q 46.6875 8.109375 53.6875 14.9375 
Q 60.6875 21.78125 60.6875 36.53125 
Q 60.6875 51.171875 53.6875 57.984375 
Q 46.6875 64.796875 31.59375 64.796875 
z
M 9.8125 72.90625 
L 30.078125 72.90625 
Q 51.265625 72.90625 61.171875 64.09375 
Q 71.09375 55.28125 71.09375 36.53125 
Q 71.09375 17.671875 61.125 8.828125 
Q 51.171875 0 30.078125 0 
L 9.8125 0 
z
" id="DejaVuSans-44"/>
     <path d="M 32.171875 -5.078125 
Q 28.375 -14.84375 24.75 -17.8125 
Q 21.140625 -20.796875 15.09375 -20.796875 
L 7.90625 -20.796875 
L 7.90625 -13.28125 
L 13.1875 -13.28125 
Q 16.890625 -13.28125 18.9375 -11.515625 
Q 21 -9.765625 23.484375 -3.21875 
L 25.09375 0.875 
L 2.984375 54.6875 
L 12.5 54.6875 
L 29.59375 11.921875 
L 46.6875 54.6875 
L 56.203125 54.6875 
z
" id="DejaVuSans-79"/>
    </defs>
    <g transform="translate(322.56 242.2505)scale(0.08 -0.08)">
     <use xlink:href="#DejaVuSans-44"/>
     <use x="77.001953" xlink:href="#DejaVuSans-79"/>
     <use x="136.181641" xlink:href="#DejaVuSans-6e"/>
     <use x="199.560547" xlink:href="#DejaVuSans-61"/>
     <use x="260.839844" xlink:href="#DejaVuSans-6d"/>
     <use x="358.251953" xlink:href="#DejaVuSans-69"/>
     <use x="386.035156" xlink:href="#DejaVuSans-63"/>
     <use x="441.015625" xlink:href="#DejaVuSans-20"/>
     <use x="472.802734" xlink:href="#DejaVuSans-76"/>
     <use x="531.982422" xlink:href="#DejaVuSans-69"/>
     <use x="559.765625" xlink:href="#DejaVuSans-73"/>
     <use x="611.865234" xlink:href="#DejaVuSans-63"/>
     <use x="666.845703" xlink:href="#DejaVuSans-6f"/>
     <use x="728.027344" xlink:href="#DejaVuSans-73"/>
     <use x="780.126953" xlink:href="#DejaVuSans-69"/>
     <use x="807.910156" xlink:href="#DejaVuSans-74"/>
     <use x="847.119141" xlink:href="#DejaVuSans-79"/>
     <use x="906.298828" xlink:href="#DejaVuSans-20"/>
    </g>
    <!-- of medium, 0.0101 $ \frac{g}{cm s}$ -->
    <defs>
     <path d="M 10.6875 12.40625 
L 21 12.40625 
L 21 0 
L 10.6875 0 
z
" id="DejaVuSans-2e"/>
     <path d="M 59.625 54.6875 
L 50.296875 6.78125 
Q 47.609375 -7.125 40.015625 -13.953125 
Q 32.421875 -20.796875 19.578125 -20.796875 
Q 14.84375 -20.796875 10.78125 -20.09375 
Q 6.734375 -19.390625 3.21875 -17.921875 
L 4.890625 -9.1875 
Q 8.203125 -11.328125 11.90625 -12.34375 
Q 15.625 -13.375 19.828125 -13.375 
Q 28.375 -13.375 33.859375 -8.703125 
Q 39.359375 -4.046875 41.109375 4.6875 
L 41.890625 8.796875 
Q 38.140625 4.5 33.15625 2.25 
Q 28.171875 0 22.40625 0 
Q 14.109375 0 9.34375 5.484375 
Q 4.59375 10.984375 4.59375 20.609375 
Q 4.59375 28.171875 7.46875 35.421875 
Q 10.359375 42.671875 15.578125 48.296875 
Q 19.046875 52 23.65625 54 
Q 28.265625 56 33.296875 56 
Q 38.8125 56 42.90625 53.4375 
Q 47.015625 50.875 49.03125 46.1875 
L 50.59375 54.6875 
z
M 46.09375 34.625 
Q 46.09375 41.265625 42.96875 44.875 
Q 39.84375 48.484375 34.078125 48.484375 
Q 30.515625 48.484375 27.296875 47.0625 
Q 24.078125 45.65625 21.78125 43.109375 
Q 18.0625 38.921875 15.984375 33.234375 
Q 13.921875 27.546875 13.921875 21.484375 
Q 13.921875 14.75 17.0625 11.125 
Q 20.21875 7.515625 26.125 7.515625 
Q 34.671875 7.515625 40.375 15.25 
Q 46.09375 23 46.09375 34.625 
z
" id="DejaVuSans-Oblique-67"/>
     <path d="M 53.609375 52.59375 
L 51.8125 43.703125 
Q 48.578125 46.046875 44.9375 47.21875 
Q 41.3125 48.390625 37.40625 48.390625 
Q 33.109375 48.390625 29.21875 46.875 
Q 25.34375 45.359375 22.703125 42.578125 
Q 18.5 38.328125 16.203125 32.609375 
Q 13.921875 26.90625 13.921875 20.796875 
Q 13.921875 13.421875 17.609375 9.8125 
Q 21.296875 6.203125 28.8125 6.203125 
Q 32.515625 6.203125 36.6875 7.328125 
Q 40.875 8.453125 45.40625 10.6875 
L 43.703125 1.8125 
Q 39.796875 0.203125 35.671875 -0.609375 
Q 31.546875 -1.421875 27.203125 -1.421875 
Q 16.3125 -1.421875 10.453125 4.015625 
Q 4.59375 9.46875 4.59375 19.578125 
Q 4.59375 28.078125 7.640625 35.234375 
Q 10.6875 42.390625 16.703125 48.09375 
Q 20.796875 52 26.3125 54 
Q 31.84375 56 38.375 56 
Q 42.1875 56 45.9375 55.140625 
Q 49.703125 54.296875 53.609375 52.59375 
z
" id="DejaVuSans-Oblique-63"/>
    </defs>
    <g transform="translate(322.56 253.32225)scale(0.08 -0.08)">
     <use transform="translate(0 0.445312)" xlink:href="#DejaVuSans-6f"/>
     <use transform="translate(61.181641 0.445312)" xlink:href="#DejaVuSans-66"/>
     <use transform="translate(96.386719 0.445312)" xlink:href="#DejaVuSans-20"/>
     <use transform="translate(128.173828 0.445312)" xlink:href="#DejaVuSans-6d"/>
     <use transform="translate(225.585938 0.445312)" xlink:href="#DejaVuSans-65"/>
     <use transform="translate(287.109375 0.445312)" xlink:href="#DejaVuSans-64"/>
     <use transform="translate(350.585938 0.445312)" xlink:href="#DejaVuSans-69"/>
     <use transform="translate(378.369141 0.445312)" xlink:href="#DejaVuSans-75"/>
     <use transform="translate(441.748047 0.445312)" xlink:href="#DejaVuSans-6d"/>
     <use transform="translate(539.160156 0.445312)" xlink:href="#DejaVuSans-2c"/>
     <use transform="translate(570.947266 0.445312)" xlink:href="#DejaVuSans-20"/>
     <use transform="translate(602.734375 0.445312)" xlink:href="#DejaVuSans-30"/>
     <use transform="translate(666.357422 0.445312)" xlink:href="#DejaVuSans-2e"/>
     <use transform="translate(698.144531 0.445312)" xlink:href="#DejaVuSans-30"/>
     <use transform="translate(761.767578 0.445312)" xlink:href="#DejaVuSans-31"/>
     <use transform="translate(825.390625 0.445312)" xlink:href="#DejaVuSans-30"/>
     <use transform="translate(889.013672 0.445312)" xlink:href="#DejaVuSans-31"/>
     <use transform="translate(952.636719 0.445312)" xlink:href="#DejaVuSans-20"/>
     <use transform="translate(1033.423828 58.8)scale(0.7)" xlink:href="#DejaVuSans-Oblique-67"/>
     <use transform="translate(984.423828 -26.207812)scale(0.7)" xlink:href="#DejaVuSans-Oblique-63"/>
     <use transform="translate(1022.910156 -26.207812)scale(0.7)" xlink:href="#DejaVuSans-Oblique-6d"/>
     <use transform="translate(1091.098633 -26.207812)scale(0.7)" xlink:href="#DejaVuSans-Oblique-73"/>
     <path d="M 984.423828 19.242188 
L 984.423828 25.492188 
L 1127.568359 25.492188 
L 1127.568359 19.242188 
L 984.423828 19.242188 
z
"/>
    </g>
    <!--  -->
    <g transform="translate(322.56 262.85675)scale(0.08 -0.08)"/>
    <!-- BMN particles -->
    <g transform="translate(322.56 271.815)scale(0.08 -0.08)">
     <use xlink:href="#DejaVuSans-42"/>
     <use x="68.603516" xlink:href="#DejaVuSans-4d"/>
     <use x="154.882812" xlink:href="#DejaVuSans-4e"/>
     <use x="229.6875" xlink:href="#DejaVuSans-20"/>
     <use x="261.474609" xlink:href="#DejaVuSans-70"/>
     <use x="324.951172" xlink:href="#DejaVuSans-61"/>
     <use x="386.230469" xlink:href="#DejaVuSans-72"/>
     <use x="427.34375" xlink:href="#DejaVuSans-74"/>
     <use x="466.552734" xlink:href="#DejaVuSans-69"/>
     <use x="494.335938" xlink:href="#DejaVuSans-63"/>
     <use x="549.316406" xlink:href="#DejaVuSans-6c"/>
     <use x="577.099609" xlink:href="#DejaVuSans-65"/>
     <use x="638.623047" xlink:href="#DejaVuSans-73"/>
    </g>
    <!-- magnetisation, 477  -->
    <defs>
     <path d="M 8.203125 72.90625 
L 55.078125 72.90625 
L 55.078125 68.703125 
L 28.609375 0 
L 18.3125 0 
L 43.21875 64.59375 
L 8.203125 64.59375 
z
" id="DejaVuSans-37"/>
    </defs>
    <g transform="translate(322.56 280.77325)scale(0.08 -0.08)">
     <use xlink:href="#DejaVuSans-6d"/>
     <use x="97.412109" xlink:href="#DejaVuSans-61"/>
     <use x="158.691406" xlink:href="#DejaVuSans-67"/>
     <use x="222.167969" xlink:href="#DejaVuSans-6e"/>
     <use x="285.546875" xlink:href="#DejaVuSans-65"/>
     <use x="347.070312" xlink:href="#DejaVuSans-74"/>
     <use x="386.279297" xlink:href="#DejaVuSans-69"/>
     <use x="414.0625" xlink:href="#DejaVuSans-73"/>
     <use x="466.162109" xlink:href="#DejaVuSans-61"/>
     <use x="527.441406" xlink:href="#DejaVuSans-74"/>
     <use x="566.650391" xlink:href="#DejaVuSans-69"/>
     <use x="594.433594" xlink:href="#DejaVuSans-6f"/>
     <use x="655.615234" xlink:href="#DejaVuSans-6e"/>
     <use x="718.994141" xlink:href="#DejaVuSans-2c"/>
     <use x="750.78125" xlink:href="#DejaVuSans-20"/>
     <use x="782.568359" xlink:href="#DejaVuSans-34"/>
     <use x="846.191406" xlink:href="#DejaVuSans-37"/>
     <use x="909.814453" xlink:href="#DejaVuSans-37"/>
     <use x="973.4375" xlink:href="#DejaVuSans-20"/>
    </g>
    <!--  -->
    <g transform="translate(322.56 289.7315)scale(0.08 -0.08)"/>
    <!-- Vesicule speed, 0.0002 $ \frac{cm}{s}$ -->
    <g transform="translate(322.56 299.45925)scale(0.08 -0.08)">
     <use transform="translate(0 0.007812)" xlink:href="#DejaVuSans-56"/>
     <use transform="translate(68.408203 0.007812)" xlink:href="#DejaVuSans-65"/>
     <use transform="translate(129.931641 0.007812)" xlink:href="#DejaVuSans-73"/>
     <use transform="translate(182.03125 0.007812)" xlink:href="#DejaVuSans-69"/>
     <use transform="translate(209.814453 0.007812)" xlink:href="#DejaVuSans-63"/>
     <use transform="translate(264.794922 0.007812)" xlink:href="#DejaVuSans-75"/>
     <use transform="translate(328.173828 0.007812)" xlink:href="#DejaVuSans-6c"/>
     <use transform="translate(355.957031 0.007812)" xlink:href="#DejaVuSans-65"/>
     <use transform="translate(417.480469 0.007812)" xlink:href="#DejaVuSans-20"/>
     <use transform="translate(449.267578 0.007812)" xlink:href="#DejaVuSans-73"/>
     <use transform="translate(501.367188 0.007812)" xlink:href="#DejaVuSans-70"/>
     <use transform="translate(564.84375 0.007812)" xlink:href="#DejaVuSans-65"/>
     <use transform="translate(626.367188 0.007812)" xlink:href="#DejaVuSans-65"/>
     <use transform="translate(687.890625 0.007812)" xlink:href="#DejaVuSans-64"/>
     <use transform="translate(751.367188 0.007812)" xlink:href="#DejaVuSans-2c"/>
     <use transform="translate(783.154297 0.007812)" xlink:href="#DejaVuSans-20"/>
     <use transform="translate(814.941406 0.007812)" xlink:href="#DejaVuSans-30"/>
     <use transform="translate(878.564453 0.007812)" xlink:href="#DejaVuSans-2e"/>
     <use transform="translate(910.351562 0.007812)" xlink:href="#DejaVuSans-30"/>
     <use transform="translate(973.974609 0.007812)" xlink:href="#DejaVuSans-30"/>
     <use transform="translate(1037.597656 0.007812)" xlink:href="#DejaVuSans-30"/>
     <use transform="translate(1101.220703 0.007812)" xlink:href="#DejaVuSans-32"/>
     <use transform="translate(1164.84375 0.007812)" xlink:href="#DejaVuSans-20"/>
     <use transform="translate(1196.630859 44.8)scale(0.7)" xlink:href="#DejaVuSans-Oblique-63"/>
     <use transform="translate(1235.117188 44.8)scale(0.7)" xlink:href="#DejaVuSans-Oblique-6d"/>
     <use transform="translate(1231.630859 -26.645312)scale(0.7)" xlink:href="#DejaVuSans-Oblique-73"/>
     <path d="M 1196.630859 18.804688 
L 1196.630859 25.054688 
L 1303.305664 25.054688 
L 1303.305664 18.804688 
L 1196.630859 18.804688 
z
"/>
    </g>
    <!--  -->
    <g transform="translate(322.56 308.99375)scale(0.08 -0.08)"/>
    <!--  -->
    <g transform="translate(322.56 317.952)scale(0.08 -0.08)"/>
   </g>
   <g id="legend_1">
    <g id="patch_7">
     <path d="M 318.616 104.704188 
L 417.7035 104.704188 
Q 419.7035 104.704188 419.7035 102.704188 
L 419.7035 48.472 
Q 419.7035 46.472 417.7035 46.472 
L 318.616 46.472 
Q 316.616 46.472 316.616 48.472 
L 316.616 102.704188 
Q 316.616 104.704188 318.616 104.704188 
z
" style="fill:#ffffff;opacity:0.8;stroke:#cccccc;stroke-linejoin:miter;"/>
    </g>
    <g id="text_16">
     <!-- Count of bmn -->
     <defs>
      <path d="M 48.6875 27.296875 
Q 48.6875 37.203125 44.609375 42.84375 
Q 40.53125 48.484375 33.40625 48.484375 
Q 26.265625 48.484375 22.1875 42.84375 
Q 18.109375 37.203125 18.109375 27.296875 
Q 18.109375 17.390625 22.1875 11.75 
Q 26.265625 6.109375 33.40625 6.109375 
Q 40.53125 6.109375 44.609375 11.75 
Q 48.6875 17.390625 48.6875 27.296875 
z
M 18.109375 46.390625 
Q 20.953125 51.265625 25.265625 53.625 
Q 29.59375 56 35.59375 56 
Q 45.5625 56 51.78125 48.09375 
Q 58.015625 40.1875 58.015625 27.296875 
Q 58.015625 14.40625 51.78125 6.484375 
Q 45.5625 -1.421875 35.59375 -1.421875 
Q 29.59375 -1.421875 25.265625 0.953125 
Q 20.953125 3.328125 18.109375 8.203125 
L 18.109375 0 
L 9.078125 0 
L 9.078125 75.984375 
L 18.109375 75.984375 
z
" id="DejaVuSans-62"/>
     </defs>
     <g transform="translate(331.812875 58.070438)scale(0.1 -0.1)">
      <use xlink:href="#DejaVuSans-43"/>
      <use x="69.824219" xlink:href="#DejaVuSans-6f"/>
      <use x="131.005859" xlink:href="#DejaVuSans-75"/>
      <use x="194.384766" xlink:href="#DejaVuSans-6e"/>
      <use x="257.763672" xlink:href="#DejaVuSans-74"/>
      <use x="296.972656" xlink:href="#DejaVuSans-20"/>
      <use x="328.759766" xlink:href="#DejaVuSans-6f"/>
      <use x="389.941406" xlink:href="#DejaVuSans-66"/>
      <use x="425.146484" xlink:href="#DejaVuSans-20"/>
      <use x="456.933594" xlink:href="#DejaVuSans-62"/>
      <use x="520.410156" xlink:href="#DejaVuSans-6d"/>
      <use x="617.822266" xlink:href="#DejaVuSans-6e"/>
     </g>
     <!-- particles,   pcs -->
     <g transform="translate(331.812875 69.26825)scale(0.1 -0.1)">
      <use xlink:href="#DejaVuSans-70"/>
      <use x="63.476562" xlink:href="#DejaVuSans-61"/>
      <use x="124.755859" xlink:href="#DejaVuSans-72"/>
      <use x="165.869141" xlink:href="#DejaVuSans-74"/>
      <use x="205.078125" xlink:href="#DejaVuSans-69"/>
      <use x="232.861328" xlink:href="#DejaVuSans-63"/>
      <use x="287.841797" xlink:href="#DejaVuSans-6c"/>
      <use x="315.625" xlink:href="#DejaVuSans-65"/>
      <use x="377.148438" xlink:href="#DejaVuSans-73"/>
      <use x="429.248047" xlink:href="#DejaVuSans-2c"/>
      <use x="461.035156" xlink:href="#DejaVuSans-20"/>
      <use x="492.822266" xlink:href="#DejaVuSans-20"/>
      <use x="524.609375" xlink:href="#DejaVuSans-20"/>
      <use x="556.396484" xlink:href="#DejaVuSans-70"/>
      <use x="619.873047" xlink:href="#DejaVuSans-63"/>
      <use x="674.853516" xlink:href="#DejaVuSans-73"/>
     </g>
    </g>
    <g id="line2d_16">
     <path d="M 320.616 80.446375 
L 340.616 80.446375 
" style="fill:none;stroke:#0000ff;stroke-linecap:square;stroke-width:1.5;"/>
    </g>
    <g id="line2d_17">
     <g>
      <use style="fill:#0000ff;stroke:#0000ff;stroke-linejoin:miter;" x="330.616" xlink:href="#m25693f80de" y="80.446375"/>
     </g>
    </g>
    <g id="text_17">
     <!-- 1 -->
     <g transform="translate(348.616 83.946375)scale(0.1 -0.1)">
      <use xlink:href="#DejaVuSans-31"/>
     </g>
    </g>
    <g id="line2d_18">
     <path d="M 320.616 95.1245 
L 340.616 95.1245 
" style="fill:none;stroke:#008000;stroke-linecap:square;stroke-width:1.5;"/>
    </g>
    <g id="line2d_19">
     <g>
      <use style="fill:#008000;stroke:#008000;stroke-linejoin:miter;" x="330.616" xlink:href="#m6d15a66058" y="95.1245"/>
     </g>
    </g>
    <g id="text_18">
     <!-- 5 -->
     <g transform="translate(348.616 98.6245)scale(0.1 -0.1)">
      <use xlink:href="#DejaVuSans-35"/>
     </g>
    </g>
    <g id="line2d_20">
     <path d="M 374.9785 80.446375 
L 394.9785 80.446375 
" style="fill:none;stroke:#ff0000;stroke-linecap:square;stroke-width:1.5;"/>
    </g>
    <g id="line2d_21">
     <g>
      <use style="fill:#ff0000;stroke:#ff0000;stroke-linejoin:miter;" x="384.9785" xlink:href="#m9637021d70" y="80.446375"/>
     </g>
    </g>
    <g id="text_19">
     <!-- 10 -->
     <g transform="translate(402.9785 83.946375)scale(0.1 -0.1)">
      <use xlink:href="#DejaVuSans-31"/>
      <use x="63.623047" xlink:href="#DejaVuSans-30"/>
     </g>
    </g>
   </g>
  </g>
 </g>
 <defs>
  <clipPath id="p7b8d58c27c">
   <rect height="266.112" width="241.92" x="57.6" y="41.472"/>
  </clipPath>
 </defs>
</svg>
