<?xml version="1.0" encoding="utf-8" standalone="no"?>
<!DOCTYPE svg PUBLIC "-//W3C//DTD SVG 1.1//EN"
  "http://www.w3.org/Graphics/SVG/1.1/DTD/svg11.dtd">
<!-- Created with matplotlib (http://matplotlib.org/) -->
<svg height="345pt" version="1.1" viewBox="0 0 460 345" width="460pt" xmlns="http://www.w3.org/2000/svg" xmlns:xlink="http://www.w3.org/1999/xlink">
 <defs>
  <style type="text/css">
*{stroke-linecap:butt;stroke-linejoin:round;}
  </style>
 </defs>
 <g id="figure_1">
  <g id="patch_1">
   <path d="M 0 345.6 
L 460.8 345.6 
L 460.8 0 
L 0 0 
z
" style="fill:#ffffff;"/>
  </g>
  <g id="axes_1">
   <g id="patch_2">
    <path d="M 57.6 307.584 
L 276.48 307.584 
L 276.48 41.472 
L 57.6 41.472 
z
" style="fill:#ffffff;"/>
   </g>
   <g id="matplotlib.axis_1">
    <g id="xtick_1">
     <g id="line2d_1">
      <defs>
       <path d="M 0 0 
L 0 3.5 
" id="m850e8ca95e" style="stroke:#000000;stroke-width:0.8;"/>
      </defs>
      <g>
       <use style="stroke:#000000;stroke-width:0.8;" x="65.539174" xlink:href="#m850e8ca95e" y="307.584"/>
      </g>
     </g>
     <g id="text_1">
      <!-- 0 -->
      <defs>
       <path d="M 31.78125 66.40625 
Q 24.171875 66.40625 20.328125 58.90625 
Q 16.5 51.421875 16.5 36.375 
Q 16.5 21.390625 20.328125 13.890625 
Q 24.171875 6.390625 31.78125 6.390625 
Q 39.453125 6.390625 43.28125 13.890625 
Q 47.125 21.390625 47.125 36.375 
Q 47.125 51.421875 43.28125 58.90625 
Q 39.453125 66.40625 31.78125 66.40625 
z
M 31.78125 74.21875 
Q 44.046875 74.21875 50.515625 64.515625 
Q 56.984375 54.828125 56.984375 36.375 
Q 56.984375 17.96875 50.515625 8.265625 
Q 44.046875 -1.421875 31.78125 -1.421875 
Q 19.53125 -1.421875 13.0625 8.265625 
Q 6.59375 17.96875 6.59375 36.375 
Q 6.59375 54.828125 13.0625 64.515625 
Q 19.53125 74.21875 31.78125 74.21875 
z
" id="DejaVuSans-30"/>
      </defs>
      <g transform="translate(62.357924 322.182437)scale(0.1 -0.1)">
       <use xlink:href="#DejaVuSans-30"/>
      </g>
     </g>
    </g>
    <g id="xtick_2">
     <g id="line2d_2">
      <g>
       <use style="stroke:#000000;stroke-width:0.8;" x="105.737521" xlink:href="#m850e8ca95e" y="307.584"/>
      </g>
     </g>
     <g id="text_2">
      <!-- 1000 -->
      <defs>
       <path d="M 12.40625 8.296875 
L 28.515625 8.296875 
L 28.515625 63.921875 
L 10.984375 60.40625 
L 10.984375 69.390625 
L 28.421875 72.90625 
L 38.28125 72.90625 
L 38.28125 8.296875 
L 54.390625 8.296875 
L 54.390625 0 
L 12.40625 0 
z
" id="DejaVuSans-31"/>
      </defs>
      <g transform="translate(93.012521 322.182437)scale(0.1 -0.1)">
       <use xlink:href="#DejaVuSans-31"/>
       <use x="63.623047" xlink:href="#DejaVuSans-30"/>
       <use x="127.246094" xlink:href="#DejaVuSans-30"/>
       <use x="190.869141" xlink:href="#DejaVuSans-30"/>
      </g>
     </g>
    </g>
    <g id="xtick_3">
     <g id="line2d_3">
      <g>
       <use style="stroke:#000000;stroke-width:0.8;" x="145.935868" xlink:href="#m850e8ca95e" y="307.584"/>
      </g>
     </g>
     <g id="text_3">
      <!-- 2000 -->
      <defs>
       <path d="M 19.1875 8.296875 
L 53.609375 8.296875 
L 53.609375 0 
L 7.328125 0 
L 7.328125 8.296875 
Q 12.9375 14.109375 22.625 23.890625 
Q 32.328125 33.6875 34.8125 36.53125 
Q 39.546875 41.84375 41.421875 45.53125 
Q 43.3125 49.21875 43.3125 52.78125 
Q 43.3125 58.59375 39.234375 62.25 
Q 35.15625 65.921875 28.609375 65.921875 
Q 23.96875 65.921875 18.8125 64.3125 
Q 13.671875 62.703125 7.8125 59.421875 
L 7.8125 69.390625 
Q 13.765625 71.78125 18.9375 73 
Q 24.125 74.21875 28.421875 74.21875 
Q 39.75 74.21875 46.484375 68.546875 
Q 53.21875 62.890625 53.21875 53.421875 
Q 53.21875 48.921875 51.53125 44.890625 
Q 49.859375 40.875 45.40625 35.40625 
Q 44.1875 33.984375 37.640625 27.21875 
Q 31.109375 20.453125 19.1875 8.296875 
z
" id="DejaVuSans-32"/>
      </defs>
      <g transform="translate(133.210868 322.182437)scale(0.1 -0.1)">
       <use xlink:href="#DejaVuSans-32"/>
       <use x="63.623047" xlink:href="#DejaVuSans-30"/>
       <use x="127.246094" xlink:href="#DejaVuSans-30"/>
       <use x="190.869141" xlink:href="#DejaVuSans-30"/>
      </g>
     </g>
    </g>
    <g id="xtick_4">
     <g id="line2d_4">
      <g>
       <use style="stroke:#000000;stroke-width:0.8;" x="186.134215" xlink:href="#m850e8ca95e" y="307.584"/>
      </g>
     </g>
     <g id="text_4">
      <!-- 3000 -->
      <defs>
       <path d="M 40.578125 39.3125 
Q 47.65625 37.796875 51.625 33 
Q 55.609375 28.21875 55.609375 21.1875 
Q 55.609375 10.40625 48.1875 4.484375 
Q 40.765625 -1.421875 27.09375 -1.421875 
Q 22.515625 -1.421875 17.65625 -0.515625 
Q 12.796875 0.390625 7.625 2.203125 
L 7.625 11.71875 
Q 11.71875 9.328125 16.59375 8.109375 
Q 21.484375 6.890625 26.8125 6.890625 
Q 36.078125 6.890625 40.9375 10.546875 
Q 45.796875 14.203125 45.796875 21.1875 
Q 45.796875 27.640625 41.28125 31.265625 
Q 36.765625 34.90625 28.71875 34.90625 
L 20.21875 34.90625 
L 20.21875 43.015625 
L 29.109375 43.015625 
Q 36.375 43.015625 40.234375 45.921875 
Q 44.09375 48.828125 44.09375 54.296875 
Q 44.09375 59.90625 40.109375 62.90625 
Q 36.140625 65.921875 28.71875 65.921875 
Q 24.65625 65.921875 20.015625 65.03125 
Q 15.375 64.15625 9.8125 62.3125 
L 9.8125 71.09375 
Q 15.4375 72.65625 20.34375 73.4375 
Q 25.25 74.21875 29.59375 74.21875 
Q 40.828125 74.21875 47.359375 69.109375 
Q 53.90625 64.015625 53.90625 55.328125 
Q 53.90625 49.265625 50.4375 45.09375 
Q 46.96875 40.921875 40.578125 39.3125 
z
" id="DejaVuSans-33"/>
      </defs>
      <g transform="translate(173.409215 322.182437)scale(0.1 -0.1)">
       <use xlink:href="#DejaVuSans-33"/>
       <use x="63.623047" xlink:href="#DejaVuSans-30"/>
       <use x="127.246094" xlink:href="#DejaVuSans-30"/>
       <use x="190.869141" xlink:href="#DejaVuSans-30"/>
      </g>
     </g>
    </g>
    <g id="xtick_5">
     <g id="line2d_5">
      <g>
       <use style="stroke:#000000;stroke-width:0.8;" x="226.332562" xlink:href="#m850e8ca95e" y="307.584"/>
      </g>
     </g>
     <g id="text_5">
      <!-- 4000 -->
      <defs>
       <path d="M 37.796875 64.3125 
L 12.890625 25.390625 
L 37.796875 25.390625 
z
M 35.203125 72.90625 
L 47.609375 72.90625 
L 47.609375 25.390625 
L 58.015625 25.390625 
L 58.015625 17.1875 
L 47.609375 17.1875 
L 47.609375 0 
L 37.796875 0 
L 37.796875 17.1875 
L 4.890625 17.1875 
L 4.890625 26.703125 
z
" id="DejaVuSans-34"/>
      </defs>
      <g transform="translate(213.607562 322.182437)scale(0.1 -0.1)">
       <use xlink:href="#DejaVuSans-34"/>
       <use x="63.623047" xlink:href="#DejaVuSans-30"/>
       <use x="127.246094" xlink:href="#DejaVuSans-30"/>
       <use x="190.869141" xlink:href="#DejaVuSans-30"/>
      </g>
     </g>
    </g>
    <g id="xtick_6">
     <g id="line2d_6">
      <g>
       <use style="stroke:#000000;stroke-width:0.8;" x="266.530909" xlink:href="#m850e8ca95e" y="307.584"/>
      </g>
     </g>
     <g id="text_6">
      <!-- 5000 -->
      <defs>
       <path d="M 10.796875 72.90625 
L 49.515625 72.90625 
L 49.515625 64.59375 
L 19.828125 64.59375 
L 19.828125 46.734375 
Q 21.96875 47.46875 24.109375 47.828125 
Q 26.265625 48.1875 28.421875 48.1875 
Q 40.625 48.1875 47.75 41.5 
Q 54.890625 34.8125 54.890625 23.390625 
Q 54.890625 11.625 47.5625 5.09375 
Q 40.234375 -1.421875 26.90625 -1.421875 
Q 22.3125 -1.421875 17.546875 -0.640625 
Q 12.796875 0.140625 7.71875 1.703125 
L 7.71875 11.625 
Q 12.109375 9.234375 16.796875 8.0625 
Q 21.484375 6.890625 26.703125 6.890625 
Q 35.15625 6.890625 40.078125 11.328125 
Q 45.015625 15.765625 45.015625 23.390625 
Q 45.015625 31 40.078125 35.4375 
Q 35.15625 39.890625 26.703125 39.890625 
Q 22.75 39.890625 18.8125 39.015625 
Q 14.890625 38.140625 10.796875 36.28125 
z
" id="DejaVuSans-35"/>
      </defs>
      <g transform="translate(253.805909 322.182437)scale(0.1 -0.1)">
       <use xlink:href="#DejaVuSans-35"/>
       <use x="63.623047" xlink:href="#DejaVuSans-30"/>
       <use x="127.246094" xlink:href="#DejaVuSans-30"/>
       <use x="190.869141" xlink:href="#DejaVuSans-30"/>
      </g>
     </g>
    </g>
    <g id="text_7">
     <!-- Зовнішнє магнітне поле,  $ Гс$ -->
     <defs>
      <path d="M 28.5625 74.21875 
Q 40.578125 74.21875 48.1875 69.109375 
Q 55.8125 64.015625 55.8125 55.328125 
Q 55.8125 49.265625 52.34375 45.09375 
Q 48.875 40.921875 42.484375 39.3125 
Q 49.5625 37.796875 53.53125 33 
Q 57.515625 28.21875 57.515625 21.1875 
Q 57.515625 9.96875 48.84375 4.265625 
Q 40.1875 -1.421875 28.5625 -1.421875 
Q 22.609375 -1.421875 15.671875 0.1875 
Q 8.734375 1.8125 6.59375 3.171875 
L 6.59375 13.328125 
Q 14.0625 8.984375 18.1875 7.9375 
Q 22.3125 6.890625 28.375 6.890625 
Q 37.546875 6.890625 42.625 10.40625 
Q 47.703125 13.921875 47.703125 21.1875 
Q 47.703125 27.640625 43.1875 31.265625 
Q 38.671875 34.90625 29.15625 34.90625 
L 19.1875 34.90625 
L 19.1875 43.015625 
L 29.546875 43.015625 
Q 38.28125 43.015625 42.140625 45.921875 
Q 46 48.828125 46 54.296875 
Q 46 59.90625 42.015625 62.90625 
Q 38.03125 65.921875 28.375 65.921875 
Q 21.828125 65.921875 19.578125 65.328125 
Q 17.328125 64.75 7.328125 60.984375 
L 7.328125 70.609375 
Q 12.84375 72.5625 18.59375 73.390625 
Q 24.359375 74.21875 28.5625 74.21875 
z
" id="DejaVuSans-417"/>
      <path d="M 30.609375 48.390625 
Q 23.390625 48.390625 19.1875 42.75 
Q 14.984375 37.109375 14.984375 27.296875 
Q 14.984375 17.484375 19.15625 11.84375 
Q 23.34375 6.203125 30.609375 6.203125 
Q 37.796875 6.203125 41.984375 11.859375 
Q 46.1875 17.53125 46.1875 27.296875 
Q 46.1875 37.015625 41.984375 42.703125 
Q 37.796875 48.390625 30.609375 48.390625 
z
M 30.609375 56 
Q 42.328125 56 49.015625 48.375 
Q 55.71875 40.765625 55.71875 27.296875 
Q 55.71875 13.875 49.015625 6.21875 
Q 42.328125 -1.421875 30.609375 -1.421875 
Q 18.84375 -1.421875 12.171875 6.21875 
Q 5.515625 13.875 5.515625 27.296875 
Q 5.515625 40.765625 12.171875 48.375 
Q 18.84375 56 30.609375 56 
z
" id="DejaVuSans-43e"/>
      <path d="M 18.0625 25.203125 
L 18.0625 7.171875 
L 30.859375 7.171875 
Q 37.015625 7.171875 40.234375 9.484375 
Q 43.453125 11.8125 43.453125 16.21875 
Q 43.453125 20.609375 40.234375 22.90625 
Q 37.015625 25.203125 30.859375 25.203125 
z
M 18.0625 47.515625 
L 18.0625 32.375 
L 29.890625 32.375 
Q 34.96875 32.375 38.1875 34.390625 
Q 41.40625 36.421875 41.40625 40.046875 
Q 41.40625 43.65625 38.1875 45.578125 
Q 34.96875 47.515625 29.890625 47.515625 
z
M 9.078125 54.6875 
L 30.46875 54.6875 
Q 40.09375 54.6875 45.265625 51.171875 
Q 50.4375 47.65625 50.4375 41.15625 
Q 50.4375 36.140625 47.796875 33.171875 
Q 45.171875 30.21875 39.984375 29.5 
Q 46.1875 28.328125 49.609375 24.609375 
Q 53.03125 20.90625 53.03125 15.328125 
Q 53.03125 8.015625 47.390625 4 
Q 41.75 0 31.296875 0 
L 9.078125 0 
z
" id="DejaVuSans-432"/>
      <path d="M 9.078125 54.6875 
L 18.109375 54.6875 
L 18.109375 32.375 
L 47.265625 32.375 
L 47.265625 54.6875 
L 56.296875 54.6875 
L 56.296875 0 
L 47.265625 0 
L 47.265625 25.203125 
L 18.109375 25.203125 
L 18.109375 0 
L 9.078125 0 
z
" id="DejaVuSans-43d"/>
      <path d="M 9.421875 54.6875 
L 18.40625 54.6875 
L 18.40625 0 
L 9.421875 0 
z
M 9.421875 75.984375 
L 18.40625 75.984375 
L 18.40625 64.59375 
L 9.421875 64.59375 
z
" id="DejaVuSans-456"/>
      <path d="M 50.25 7.171875 
L 73.390625 7.171875 
L 73.390625 54.6875 
L 82.421875 54.6875 
L 82.421875 0 
L 9.078125 0 
L 9.078125 54.6875 
L 18.109375 54.6875 
L 18.109375 7.171875 
L 41.21875 7.171875 
L 41.21875 54.6875 
L 50.25 54.6875 
z
" id="DejaVuSans-448"/>
      <path d="M 33.015625 56 
Q 41.109375 56 48.78125 52.59375 
L 48.78125 44.1875 
Q 40.921875 48.390625 33.40625 48.390625 
Q 23.6875 48.390625 19.796875 42.9375 
Q 15.921875 37.5 15.328125 32.375 
L 42.78125 32.375 
L 42.78125 25.203125 
L 15.046875 25.203125 
Q 15.96875 14.546875 21.09375 10.375 
Q 26.21875 6.203125 33.40625 6.203125 
Q 41.0625 6.203125 48.78125 10.40625 
L 48.78125 2.09375 
Q 41.609375 -1.421875 32.375 -1.421875 
Q 19.828125 -1.421875 12.671875 6.34375 
Q 5.515625 14.109375 5.515625 27.296875 
Q 5.515625 40.53125 12.859375 48.265625 
Q 20.21875 56 33.015625 56 
z
" id="DejaVuSans-454"/>
      <path id="DejaVuSans-20"/>
      <path d="M 9.078125 54.6875 
L 22.21875 54.6875 
L 37.75 18.0625 
L 53.328125 54.6875 
L 66.359375 54.6875 
L 66.359375 0 
L 57.328125 0 
L 57.328125 46.09375 
L 42.234375 10.5 
L 33.25 10.5 
L 18.109375 46.09375 
L 18.109375 0 
L 9.078125 0 
z
" id="DejaVuSans-43c"/>
      <path d="M 34.28125 27.484375 
Q 23.390625 27.484375 19.1875 25 
Q 14.984375 22.515625 14.984375 16.5 
Q 14.984375 11.71875 18.140625 8.90625 
Q 21.296875 6.109375 26.703125 6.109375 
Q 34.1875 6.109375 38.703125 11.40625 
Q 43.21875 16.703125 43.21875 25.484375 
L 43.21875 27.484375 
z
M 52.203125 31.203125 
L 52.203125 0 
L 43.21875 0 
L 43.21875 8.296875 
Q 40.140625 3.328125 35.546875 0.953125 
Q 30.953125 -1.421875 24.3125 -1.421875 
Q 15.921875 -1.421875 10.953125 3.296875 
Q 6 8.015625 6 15.921875 
Q 6 25.140625 12.171875 29.828125 
Q 18.359375 34.515625 30.609375 34.515625 
L 43.21875 34.515625 
L 43.21875 35.40625 
Q 43.21875 41.609375 39.140625 45 
Q 35.0625 48.390625 27.6875 48.390625 
Q 23 48.390625 18.546875 47.265625 
Q 14.109375 46.140625 10.015625 43.890625 
L 10.015625 52.203125 
Q 14.9375 54.109375 19.578125 55.046875 
Q 24.21875 56 28.609375 56 
Q 40.484375 56 46.34375 49.84375 
Q 52.203125 43.703125 52.203125 31.203125 
z
" id="DejaVuSans-430"/>
      <path d="M 9.078125 0 
L 9.078125 54.6875 
L 47.65625 54.6875 
L 47.65625 47.515625 
L 18.109375 47.515625 
L 18.109375 0 
z
" id="DejaVuSans-433"/>
      <path d="M 2.9375 54.6875 
L 55.328125 54.6875 
L 55.328125 47.515625 
L 33.546875 47.515625 
L 33.546875 0 
L 24.703125 0 
L 24.703125 47.515625 
L 2.9375 47.515625 
z
" id="DejaVuSans-442"/>
      <path d="M 56.203125 29.59375 
L 56.203125 25.203125 
L 14.890625 25.203125 
Q 15.484375 15.921875 20.484375 11.0625 
Q 25.484375 6.203125 34.421875 6.203125 
Q 39.59375 6.203125 44.453125 7.46875 
Q 49.3125 8.734375 54.109375 11.28125 
L 54.109375 2.78125 
Q 49.265625 0.734375 44.1875 -0.34375 
Q 39.109375 -1.421875 33.890625 -1.421875 
Q 20.796875 -1.421875 13.15625 6.1875 
Q 5.515625 13.8125 5.515625 26.8125 
Q 5.515625 40.234375 12.765625 48.109375 
Q 20.015625 56 32.328125 56 
Q 43.359375 56 49.78125 48.890625 
Q 56.203125 41.796875 56.203125 29.59375 
z
M 47.21875 32.234375 
Q 47.125 39.59375 43.09375 43.984375 
Q 39.0625 48.390625 32.421875 48.390625 
Q 24.90625 48.390625 20.390625 44.140625 
Q 15.875 39.890625 15.1875 32.171875 
z
" id="DejaVuSans-435"/>
      <path d="M 56.296875 54.6875 
L 56.296875 0 
L 47.265625 0 
L 47.265625 47.515625 
L 18.109375 47.515625 
L 18.109375 0 
L 9.078125 0 
L 9.078125 54.6875 
z
" id="DejaVuSans-43f"/>
      <path d="M 3.71875 0 
L 3.71875 7.46875 
Q 12.59375 8.84375 15.328125 14.984375 
Q 18.65625 23.640625 18.65625 45.75 
L 18.65625 54.6875 
L 55.609375 54.6875 
L 55.609375 0 
L 46.625 0 
L 46.625 47.515625 
L 27.640625 47.515625 
L 27.640625 42.09375 
Q 27.640625 21 23.34375 11.53125 
Q 18.75 1.421875 3.71875 0 
z
" id="DejaVuSans-43b"/>
      <path d="M 11.71875 12.40625 
L 22.015625 12.40625 
L 22.015625 4 
L 14.015625 -11.625 
L 7.71875 -11.625 
L 11.71875 4 
z
" id="DejaVuSans-2c"/>
      <path d="M 2.734375 0 
L 16.890625 72.90625 
L 62.25 72.90625 
L 60.640625 64.59375 
L 25.140625 64.59375 
L 12.59375 0 
z
" id="DejaVuSans-Oblique-413"/>
      <path d="M 53.609375 52.59375 
L 51.8125 43.703125 
Q 48.578125 46.046875 44.9375 47.21875 
Q 41.3125 48.390625 37.40625 48.390625 
Q 33.109375 48.390625 29.21875 46.875 
Q 25.34375 45.359375 22.703125 42.578125 
Q 18.5 38.328125 16.203125 32.609375 
Q 13.921875 26.90625 13.921875 20.796875 
Q 13.921875 13.421875 17.609375 9.8125 
Q 21.296875 6.203125 28.8125 6.203125 
Q 32.515625 6.203125 36.6875 7.328125 
Q 40.875 8.453125 45.40625 10.6875 
L 43.703125 1.8125 
Q 39.796875 0.203125 35.671875 -0.609375 
Q 31.546875 -1.421875 27.203125 -1.421875 
Q 16.3125 -1.421875 10.453125 4.015625 
Q 4.59375 9.46875 4.59375 19.578125 
Q 4.59375 28.078125 7.640625 35.234375 
Q 10.6875 42.390625 16.703125 48.09375 
Q 20.796875 52 26.3125 54 
Q 31.84375 56 38.375 56 
Q 42.1875 56 45.9375 55.140625 
Q 49.703125 54.296875 53.609375 52.59375 
z
" id="DejaVuSans-Oblique-441"/>
     </defs>
     <g transform="translate(93.09 335.860562)scale(0.1 -0.1)">
      <use transform="translate(0 0.015625)" xlink:href="#DejaVuSans-417"/>
      <use transform="translate(64.111328 0.015625)" xlink:href="#DejaVuSans-43e"/>
      <use transform="translate(125.292969 0.015625)" xlink:href="#DejaVuSans-432"/>
      <use transform="translate(184.228516 0.015625)" xlink:href="#DejaVuSans-43d"/>
      <use transform="translate(249.609375 0.015625)" xlink:href="#DejaVuSans-456"/>
      <use transform="translate(277.392578 0.015625)" xlink:href="#DejaVuSans-448"/>
      <use transform="translate(368.896484 0.015625)" xlink:href="#DejaVuSans-43d"/>
      <use transform="translate(434.277344 0.015625)" xlink:href="#DejaVuSans-454"/>
      <use transform="translate(489.160156 0.015625)" xlink:href="#DejaVuSans-20"/>
      <use transform="translate(520.947266 0.015625)" xlink:href="#DejaVuSans-43c"/>
      <use transform="translate(596.386719 0.015625)" xlink:href="#DejaVuSans-430"/>
      <use transform="translate(657.666016 0.015625)" xlink:href="#DejaVuSans-433"/>
      <use transform="translate(710.205078 0.015625)" xlink:href="#DejaVuSans-43d"/>
      <use transform="translate(775.585938 0.015625)" xlink:href="#DejaVuSans-456"/>
      <use transform="translate(803.369141 0.015625)" xlink:href="#DejaVuSans-442"/>
      <use transform="translate(861.621094 0.015625)" xlink:href="#DejaVuSans-43d"/>
      <use transform="translate(927.001953 0.015625)" xlink:href="#DejaVuSans-435"/>
      <use transform="translate(988.525391 0.015625)" xlink:href="#DejaVuSans-20"/>
      <use transform="translate(1020.3125 0.015625)" xlink:href="#DejaVuSans-43f"/>
      <use transform="translate(1085.693359 0.015625)" xlink:href="#DejaVuSans-43e"/>
      <use transform="translate(1146.875 0.015625)" xlink:href="#DejaVuSans-43b"/>
      <use transform="translate(1210.791016 0.015625)" xlink:href="#DejaVuSans-435"/>
      <use transform="translate(1272.314453 0.015625)" xlink:href="#DejaVuSans-2c"/>
      <use transform="translate(1304.101562 0.015625)" xlink:href="#DejaVuSans-20"/>
      <use transform="translate(1335.888672 0.015625)" xlink:href="#DejaVuSans-20"/>
      <use transform="translate(1367.675781 0.015625)" xlink:href="#DejaVuSans-Oblique-413"/>
      <use transform="translate(1423.388672 0.015625)" xlink:href="#DejaVuSans-Oblique-441"/>
     </g>
    </g>
   </g>
   <g id="matplotlib.axis_2">
    <g id="ytick_1">
     <g id="line2d_7">
      <defs>
       <path d="M 0 0 
L -3.5 0 
" id="m5505b697ff" style="stroke:#000000;stroke-width:0.8;"/>
      </defs>
      <g>
       <use style="stroke:#000000;stroke-width:0.8;" x="57.6" xlink:href="#m5505b697ff" y="280.655059"/>
      </g>
     </g>
     <g id="text_8">
      <!-- 200 -->
      <g transform="translate(31.5125 284.454278)scale(0.1 -0.1)">
       <use xlink:href="#DejaVuSans-32"/>
       <use x="63.623047" xlink:href="#DejaVuSans-30"/>
       <use x="127.246094" xlink:href="#DejaVuSans-30"/>
      </g>
     </g>
    </g>
    <g id="ytick_2">
     <g id="line2d_8">
      <g>
       <use style="stroke:#000000;stroke-width:0.8;" x="57.6" xlink:href="#m5505b697ff" y="250.537412"/>
      </g>
     </g>
     <g id="text_9">
      <!-- 400 -->
      <g transform="translate(31.5125 254.336631)scale(0.1 -0.1)">
       <use xlink:href="#DejaVuSans-34"/>
       <use x="63.623047" xlink:href="#DejaVuSans-30"/>
       <use x="127.246094" xlink:href="#DejaVuSans-30"/>
      </g>
     </g>
    </g>
    <g id="ytick_3">
     <g id="line2d_9">
      <g>
       <use style="stroke:#000000;stroke-width:0.8;" x="57.6" xlink:href="#m5505b697ff" y="220.419765"/>
      </g>
     </g>
     <g id="text_10">
      <!-- 600 -->
      <defs>
       <path d="M 33.015625 40.375 
Q 26.375 40.375 22.484375 35.828125 
Q 18.609375 31.296875 18.609375 23.390625 
Q 18.609375 15.53125 22.484375 10.953125 
Q 26.375 6.390625 33.015625 6.390625 
Q 39.65625 6.390625 43.53125 10.953125 
Q 47.40625 15.53125 47.40625 23.390625 
Q 47.40625 31.296875 43.53125 35.828125 
Q 39.65625 40.375 33.015625 40.375 
z
M 52.59375 71.296875 
L 52.59375 62.3125 
Q 48.875 64.0625 45.09375 64.984375 
Q 41.3125 65.921875 37.59375 65.921875 
Q 27.828125 65.921875 22.671875 59.328125 
Q 17.53125 52.734375 16.796875 39.40625 
Q 19.671875 43.65625 24.015625 45.921875 
Q 28.375 48.1875 33.59375 48.1875 
Q 44.578125 48.1875 50.953125 41.515625 
Q 57.328125 34.859375 57.328125 23.390625 
Q 57.328125 12.15625 50.6875 5.359375 
Q 44.046875 -1.421875 33.015625 -1.421875 
Q 20.359375 -1.421875 13.671875 8.265625 
Q 6.984375 17.96875 6.984375 36.375 
Q 6.984375 53.65625 15.1875 63.9375 
Q 23.390625 74.21875 37.203125 74.21875 
Q 40.921875 74.21875 44.703125 73.484375 
Q 48.484375 72.75 52.59375 71.296875 
z
" id="DejaVuSans-36"/>
      </defs>
      <g transform="translate(31.5125 224.218983)scale(0.1 -0.1)">
       <use xlink:href="#DejaVuSans-36"/>
       <use x="63.623047" xlink:href="#DejaVuSans-30"/>
       <use x="127.246094" xlink:href="#DejaVuSans-30"/>
      </g>
     </g>
    </g>
    <g id="ytick_4">
     <g id="line2d_10">
      <g>
       <use style="stroke:#000000;stroke-width:0.8;" x="57.6" xlink:href="#m5505b697ff" y="190.302118"/>
      </g>
     </g>
     <g id="text_11">
      <!-- 800 -->
      <defs>
       <path d="M 31.78125 34.625 
Q 24.75 34.625 20.71875 30.859375 
Q 16.703125 27.09375 16.703125 20.515625 
Q 16.703125 13.921875 20.71875 10.15625 
Q 24.75 6.390625 31.78125 6.390625 
Q 38.8125 6.390625 42.859375 10.171875 
Q 46.921875 13.96875 46.921875 20.515625 
Q 46.921875 27.09375 42.890625 30.859375 
Q 38.875 34.625 31.78125 34.625 
z
M 21.921875 38.8125 
Q 15.578125 40.375 12.03125 44.71875 
Q 8.5 49.078125 8.5 55.328125 
Q 8.5 64.0625 14.71875 69.140625 
Q 20.953125 74.21875 31.78125 74.21875 
Q 42.671875 74.21875 48.875 69.140625 
Q 55.078125 64.0625 55.078125 55.328125 
Q 55.078125 49.078125 51.53125 44.71875 
Q 48 40.375 41.703125 38.8125 
Q 48.828125 37.15625 52.796875 32.3125 
Q 56.78125 27.484375 56.78125 20.515625 
Q 56.78125 9.90625 50.3125 4.234375 
Q 43.84375 -1.421875 31.78125 -1.421875 
Q 19.734375 -1.421875 13.25 4.234375 
Q 6.78125 9.90625 6.78125 20.515625 
Q 6.78125 27.484375 10.78125 32.3125 
Q 14.796875 37.15625 21.921875 38.8125 
z
M 18.3125 54.390625 
Q 18.3125 48.734375 21.84375 45.5625 
Q 25.390625 42.390625 31.78125 42.390625 
Q 38.140625 42.390625 41.71875 45.5625 
Q 45.3125 48.734375 45.3125 54.390625 
Q 45.3125 60.0625 41.71875 63.234375 
Q 38.140625 66.40625 31.78125 66.40625 
Q 25.390625 66.40625 21.84375 63.234375 
Q 18.3125 60.0625 18.3125 54.390625 
z
" id="DejaVuSans-38"/>
      </defs>
      <g transform="translate(31.5125 194.101336)scale(0.1 -0.1)">
       <use xlink:href="#DejaVuSans-38"/>
       <use x="63.623047" xlink:href="#DejaVuSans-30"/>
       <use x="127.246094" xlink:href="#DejaVuSans-30"/>
      </g>
     </g>
    </g>
    <g id="ytick_5">
     <g id="line2d_11">
      <g>
       <use style="stroke:#000000;stroke-width:0.8;" x="57.6" xlink:href="#m5505b697ff" y="160.184471"/>
      </g>
     </g>
     <g id="text_12">
      <!-- 1000 -->
      <g transform="translate(25.15 163.983689)scale(0.1 -0.1)">
       <use xlink:href="#DejaVuSans-31"/>
       <use x="63.623047" xlink:href="#DejaVuSans-30"/>
       <use x="127.246094" xlink:href="#DejaVuSans-30"/>
       <use x="190.869141" xlink:href="#DejaVuSans-30"/>
      </g>
     </g>
    </g>
    <g id="ytick_6">
     <g id="line2d_12">
      <g>
       <use style="stroke:#000000;stroke-width:0.8;" x="57.6" xlink:href="#m5505b697ff" y="130.066824"/>
      </g>
     </g>
     <g id="text_13">
      <!-- 1200 -->
      <g transform="translate(25.15 133.866042)scale(0.1 -0.1)">
       <use xlink:href="#DejaVuSans-31"/>
       <use x="63.623047" xlink:href="#DejaVuSans-32"/>
       <use x="127.246094" xlink:href="#DejaVuSans-30"/>
       <use x="190.869141" xlink:href="#DejaVuSans-30"/>
      </g>
     </g>
    </g>
    <g id="ytick_7">
     <g id="line2d_13">
      <g>
       <use style="stroke:#000000;stroke-width:0.8;" x="57.6" xlink:href="#m5505b697ff" y="99.949176"/>
      </g>
     </g>
     <g id="text_14">
      <!-- 1400 -->
      <g transform="translate(25.15 103.748395)scale(0.1 -0.1)">
       <use xlink:href="#DejaVuSans-31"/>
       <use x="63.623047" xlink:href="#DejaVuSans-34"/>
       <use x="127.246094" xlink:href="#DejaVuSans-30"/>
       <use x="190.869141" xlink:href="#DejaVuSans-30"/>
      </g>
     </g>
    </g>
    <g id="ytick_8">
     <g id="line2d_14">
      <g>
       <use style="stroke:#000000;stroke-width:0.8;" x="57.6" xlink:href="#m5505b697ff" y="69.831529"/>
      </g>
     </g>
     <g id="text_15">
      <!-- 1600 -->
      <g transform="translate(25.15 73.630748)scale(0.1 -0.1)">
       <use xlink:href="#DejaVuSans-31"/>
       <use x="63.623047" xlink:href="#DejaVuSans-36"/>
       <use x="127.246094" xlink:href="#DejaVuSans-30"/>
       <use x="190.869141" xlink:href="#DejaVuSans-30"/>
      </g>
     </g>
    </g>
    <g id="text_16">
     <!-- Розмір зони захоплення,  $ нм$ -->
     <defs>
      <path d="M 19.671875 64.796875 
L 19.671875 37.40625 
L 32.078125 37.40625 
Q 38.96875 37.40625 42.71875 40.96875 
Q 46.484375 44.53125 46.484375 51.125 
Q 46.484375 57.671875 42.71875 61.234375 
Q 38.96875 64.796875 32.078125 64.796875 
z
M 9.8125 72.90625 
L 32.078125 72.90625 
Q 44.34375 72.90625 50.609375 67.359375 
Q 56.890625 61.8125 56.890625 51.125 
Q 56.890625 40.328125 50.609375 34.8125 
Q 44.34375 29.296875 32.078125 29.296875 
L 19.671875 29.296875 
L 19.671875 0 
L 9.8125 0 
z
" id="DejaVuSans-420"/>
      <path d="M 34.46875 29.5 
Q 40.53125 28.328125 43.890625 24.75 
Q 47.265625 21.1875 47.265625 15.921875 
Q 47.265625 7.46875 40.96875 3.015625 
Q 34.671875 -1.421875 23.046875 -1.421875 
Q 19.140625 -1.421875 15.015625 -0.734375 
Q 10.890625 -0.046875 6.5 1.3125 
L 6.5 9.671875 
Q 9.96875 7.859375 14.109375 6.953125 
Q 18.265625 6.0625 22.796875 6.0625 
Q 30.171875 6.0625 34.296875 8.796875 
Q 38.421875 11.53125 38.421875 15.921875 
Q 38.421875 20.21875 34.765625 22.828125 
Q 31.109375 25.4375 24.421875 25.4375 
L 17.1875 25.4375 
L 17.1875 32.859375 
L 24.75 32.859375 
Q 30.421875 32.859375 33.71875 35.03125 
Q 37.015625 37.203125 37.015625 40.625 
Q 37.015625 43.75 33.609375 46 
Q 30.21875 48.25 24.421875 48.25 
Q 20.953125 48.25 17.015625 47.609375 
Q 13.09375 46.96875 8.34375 45.5625 
L 8.34375 53.71875 
Q 13.140625 54.890625 17.28125 55.46875 
Q 21.4375 56.0625 25.140625 56.0625 
Q 34.71875 56.0625 40.25 52.21875 
Q 45.796875 48.390625 45.796875 41.5 
Q 45.796875 36.96875 42.859375 33.8125 
Q 39.9375 30.671875 34.46875 29.5 
z
" id="DejaVuSans-437"/>
      <path d="M 18.109375 8.203125 
L 18.109375 -20.796875 
L 9.078125 -20.796875 
L 9.078125 54.6875 
L 18.109375 54.6875 
L 18.109375 46.390625 
Q 20.953125 51.265625 25.265625 53.625 
Q 29.59375 56 35.59375 56 
Q 45.5625 56 51.78125 48.09375 
Q 58.015625 40.1875 58.015625 27.296875 
Q 58.015625 14.40625 51.78125 6.484375 
Q 45.5625 -1.421875 35.59375 -1.421875 
Q 29.59375 -1.421875 25.265625 0.953125 
Q 20.953125 3.328125 18.109375 8.203125 
z
M 48.6875 27.296875 
Q 48.6875 37.203125 44.609375 42.84375 
Q 40.53125 48.484375 33.40625 48.484375 
Q 26.265625 48.484375 22.1875 42.84375 
Q 18.109375 37.203125 18.109375 27.296875 
Q 18.109375 17.390625 22.1875 11.75 
Q 26.265625 6.109375 33.40625 6.109375 
Q 40.53125 6.109375 44.609375 11.75 
Q 48.6875 17.390625 48.6875 27.296875 
z
" id="DejaVuSans-440"/>
      <path d="M 55.90625 54.6875 
L 55.90625 0 
L 46.96875 0 
L 46.96875 43.890625 
L 20.609375 0 
L 9.078125 0 
L 9.078125 54.6875 
L 18.015625 54.6875 
L 18.015625 10.890625 
L 44.34375 54.6875 
z
" id="DejaVuSans-438"/>
      <path d="M 54.890625 54.6875 
L 35.109375 28.078125 
L 55.90625 0 
L 45.3125 0 
L 29.390625 21.484375 
L 13.484375 0 
L 2.875 0 
L 24.125 28.609375 
L 4.6875 54.6875 
L 15.28125 54.6875 
L 29.78125 35.203125 
L 44.28125 54.6875 
z
" id="DejaVuSans-445"/>
      <path d="M 18.453125 38.921875 
Q 18.453125 34.859375 21.578125 32.5625 
Q 24.703125 30.28125 30.515625 30.28125 
L 42.625 30.28125 
L 42.625 47.515625 
L 30.515625 47.515625 
Q 24.703125 47.515625 21.578125 45.265625 
Q 18.453125 43.015625 18.453125 38.921875 
z
M 5.671875 0 
L 22.359375 23.96875 
Q 16.703125 25.25 12.9375 28.59375 
Q 9.1875 31.9375 9.1875 38.921875 
Q 9.1875 46.828125 14.421875 50.75 
Q 19.671875 54.6875 30.28125 54.6875 
L 51.65625 54.6875 
L 51.65625 0 
L 42.625 0 
L 42.625 23.09375 
L 31.453125 23.09375 
L 15.328125 0 
z
" id="DejaVuSans-44f"/>
      <path d="M 14.40625 54.6875 
L 23.4375 54.6875 
L 19.09375 32.375 
L 48.25 32.375 
L 52.59375 54.6875 
L 61.625 54.6875 
L 50.984375 0 
L 41.9375 0 
L 46.828125 25.203125 
L 17.671875 25.203125 
L 12.796875 0 
L 3.765625 0 
z
" id="DejaVuSans-Oblique-43d"/>
      <path d="M 14.40625 54.6875 
L 27.546875 54.6875 
L 35.9375 18.0625 
L 58.640625 54.6875 
L 71.6875 54.6875 
L 61.03125 0 
L 52 0 
L 60.984375 46.09375 
L 38.96875 10.5 
L 29.984375 10.5 
L 21.78125 46.09375 
L 12.796875 0 
L 3.765625 0 
z
" id="DejaVuSans-Oblique-43c"/>
     </defs>
     <g transform="translate(19.05 249.678)rotate(-90)scale(0.1 -0.1)">
      <use transform="translate(0 0.015625)" xlink:href="#DejaVuSans-420"/>
      <use transform="translate(60.302734 0.015625)" xlink:href="#DejaVuSans-43e"/>
      <use transform="translate(121.484375 0.015625)" xlink:href="#DejaVuSans-437"/>
      <use transform="translate(174.658203 0.015625)" xlink:href="#DejaVuSans-43c"/>
      <use transform="translate(250.097656 0.015625)" xlink:href="#DejaVuSans-456"/>
      <use transform="translate(277.880859 0.015625)" xlink:href="#DejaVuSans-440"/>
      <use transform="translate(341.357422 0.015625)" xlink:href="#DejaVuSans-20"/>
      <use transform="translate(373.144531 0.015625)" xlink:href="#DejaVuSans-437"/>
      <use transform="translate(426.318359 0.015625)" xlink:href="#DejaVuSans-43e"/>
      <use transform="translate(487.5 0.015625)" xlink:href="#DejaVuSans-43d"/>
      <use transform="translate(552.880859 0.015625)" xlink:href="#DejaVuSans-438"/>
      <use transform="translate(617.871094 0.015625)" xlink:href="#DejaVuSans-20"/>
      <use transform="translate(649.658203 0.015625)" xlink:href="#DejaVuSans-437"/>
      <use transform="translate(702.832031 0.015625)" xlink:href="#DejaVuSans-430"/>
      <use transform="translate(764.111328 0.015625)" xlink:href="#DejaVuSans-445"/>
      <use transform="translate(823.291016 0.015625)" xlink:href="#DejaVuSans-43e"/>
      <use transform="translate(884.472656 0.015625)" xlink:href="#DejaVuSans-43f"/>
      <use transform="translate(949.853516 0.015625)" xlink:href="#DejaVuSans-43b"/>
      <use transform="translate(1013.769531 0.015625)" xlink:href="#DejaVuSans-435"/>
      <use transform="translate(1075.292969 0.015625)" xlink:href="#DejaVuSans-43d"/>
      <use transform="translate(1140.673828 0.015625)" xlink:href="#DejaVuSans-43d"/>
      <use transform="translate(1206.054688 0.015625)" xlink:href="#DejaVuSans-44f"/>
      <use transform="translate(1266.210938 0.015625)" xlink:href="#DejaVuSans-2c"/>
      <use transform="translate(1297.998047 0.015625)" xlink:href="#DejaVuSans-20"/>
      <use transform="translate(1329.785156 0.015625)" xlink:href="#DejaVuSans-20"/>
      <use transform="translate(1361.572266 0.015625)" xlink:href="#DejaVuSans-Oblique-43d"/>
      <use transform="translate(1426.953125 0.015625)" xlink:href="#DejaVuSans-Oblique-43c"/>
     </g>
    </g>
   </g>
   <g id="line2d_15">
    <path clip-path="url(#p82427356bc)" d="M 67.549091 295.488 
L 105.737521 295.488 
L 186.134215 295.488 
L 266.530909 295.488 
" style="fill:none;stroke:#0000ff;stroke-linecap:square;stroke-width:1.5;"/>
    <defs>
     <path d="M 0 -4 
L -4 4 
L 4 4 
z
" id="meef92c5042" style="stroke:#0000ff;stroke-linejoin:miter;"/>
    </defs>
    <g clip-path="url(#p82427356bc)">
     <use style="fill:#0000ff;stroke:#0000ff;stroke-linejoin:miter;" x="67.549091" xlink:href="#meef92c5042" y="295.488"/>
     <use style="fill:#0000ff;stroke:#0000ff;stroke-linejoin:miter;" x="105.737521" xlink:href="#meef92c5042" y="295.488"/>
     <use style="fill:#0000ff;stroke:#0000ff;stroke-linejoin:miter;" x="186.134215" xlink:href="#meef92c5042" y="295.488"/>
     <use style="fill:#0000ff;stroke:#0000ff;stroke-linejoin:miter;" x="266.530909" xlink:href="#meef92c5042" y="295.488"/>
    </g>
   </g>
   <g id="line2d_16">
    <path clip-path="url(#p82427356bc)" d="M 67.549091 295.488 
L 105.737521 295.036235 
L 186.134215 294.057412 
L 266.530909 293.153882 
" style="fill:none;stroke:#008000;stroke-linecap:square;stroke-width:1.5;"/>
    <defs>
     <path d="M -2 4 
L 0 2 
L 2 4 
L 4 2 
L 2 0 
L 4 -2 
L 2 -4 
L 0 -2 
L -2 -4 
L -4 -2 
L -2 0 
L -4 2 
z
" id="m94c6df1136" style="stroke:#008000;stroke-linejoin:miter;"/>
    </defs>
    <g clip-path="url(#p82427356bc)">
     <use style="fill:#008000;stroke:#008000;stroke-linejoin:miter;" x="67.549091" xlink:href="#m94c6df1136" y="295.488"/>
     <use style="fill:#008000;stroke:#008000;stroke-linejoin:miter;" x="105.737521" xlink:href="#m94c6df1136" y="295.036235"/>
     <use style="fill:#008000;stroke:#008000;stroke-linejoin:miter;" x="186.134215" xlink:href="#m94c6df1136" y="294.057412"/>
     <use style="fill:#008000;stroke:#008000;stroke-linejoin:miter;" x="266.530909" xlink:href="#m94c6df1136" y="293.153882"/>
    </g>
   </g>
   <g id="line2d_17">
    <path clip-path="url(#p82427356bc)" d="M 67.549091 293.153882 
L 105.737521 270.565647 
L 186.134215 250.763294 
L 266.530909 239.469176 
" style="fill:none;stroke:#ff0000;stroke-linecap:square;stroke-width:1.5;"/>
    <defs>
     <path d="M -1.333333 4 
L 1.333333 4 
L 1.333333 1.333333 
L 4 1.333333 
L 4 -1.333333 
L 1.333333 -1.333333 
L 1.333333 -4 
L -1.333333 -4 
L -1.333333 -1.333333 
L -4 -1.333333 
L -4 1.333333 
L -1.333333 1.333333 
z
" id="m16f28dd707" style="stroke:#ff0000;stroke-linejoin:miter;"/>
    </defs>
    <g clip-path="url(#p82427356bc)">
     <use style="fill:#ff0000;stroke:#ff0000;stroke-linejoin:miter;" x="67.549091" xlink:href="#m16f28dd707" y="293.153882"/>
     <use style="fill:#ff0000;stroke:#ff0000;stroke-linejoin:miter;" x="105.737521" xlink:href="#m16f28dd707" y="270.565647"/>
     <use style="fill:#ff0000;stroke:#ff0000;stroke-linejoin:miter;" x="186.134215" xlink:href="#m16f28dd707" y="250.763294"/>
     <use style="fill:#ff0000;stroke:#ff0000;stroke-linejoin:miter;" x="266.530909" xlink:href="#m16f28dd707" y="239.469176"/>
    </g>
   </g>
   <g id="line2d_18">
    <path clip-path="url(#p82427356bc)" d="M 67.549091 239.469176 
L 105.737521 139.704471 
L 186.134215 84.212706 
L 266.530909 53.568 
" style="fill:none;stroke:#00bfbf;stroke-linecap:square;stroke-width:1.5;"/>
    <defs>
     <path d="M -0 5.656854 
L 5.656854 0 
L 0 -5.656854 
L -5.656854 -0 
z
" id="mb5ccdedcbb" style="stroke:#00bfbf;stroke-linejoin:miter;"/>
    </defs>
    <g clip-path="url(#p82427356bc)">
     <use style="fill:#00bfbf;stroke:#00bfbf;stroke-linejoin:miter;" x="67.549091" xlink:href="#mb5ccdedcbb" y="239.469176"/>
     <use style="fill:#00bfbf;stroke:#00bfbf;stroke-linejoin:miter;" x="105.737521" xlink:href="#mb5ccdedcbb" y="139.704471"/>
     <use style="fill:#00bfbf;stroke:#00bfbf;stroke-linejoin:miter;" x="186.134215" xlink:href="#mb5ccdedcbb" y="84.212706"/>
     <use style="fill:#00bfbf;stroke:#00bfbf;stroke-linejoin:miter;" x="266.530909" xlink:href="#mb5ccdedcbb" y="53.568"/>
    </g>
   </g>
   <g id="patch_3">
    <path d="M 57.6 307.584 
L 57.6 41.472 
" style="fill:none;stroke:#000000;stroke-linecap:square;stroke-linejoin:miter;stroke-width:0.8;"/>
   </g>
   <g id="patch_4">
    <path d="M 276.48 307.584 
L 276.48 41.472 
" style="fill:none;stroke:#000000;stroke-linecap:square;stroke-linejoin:miter;stroke-width:0.8;"/>
   </g>
   <g id="patch_5">
    <path d="M 57.6 307.584 
L 276.48 307.584 
" style="fill:none;stroke:#000000;stroke-linecap:square;stroke-linejoin:miter;stroke-width:0.8;"/>
   </g>
   <g id="patch_6">
    <path d="M 57.6 41.472 
L 276.48 41.472 
" style="fill:none;stroke:#000000;stroke-linecap:square;stroke-linejoin:miter;stroke-width:0.8;"/>
   </g>
   <g id="text_17">
    <!-- радіус БМН, 50 $ нм$ -->
    <defs>
     <path d="M 21.625 7.171875 
L 47.703125 7.171875 
L 47.703125 47.515625 
L 28.8125 47.515625 
L 28.8125 40.671875 
Q 28.8125 20.5625 23.046875 9.8125 
z
M 8.59375 7.171875 
Q 13.03125 9.125 14.984375 13.28125 
Q 19.78125 23.578125 19.78125 44.34375 
L 19.78125 54.6875 
L 56.734375 54.6875 
L 56.734375 7.171875 
L 63.921875 7.171875 
L 63.921875 -13.8125 
L 56.734375 -13.8125 
L 56.734375 0 
L 12.40625 0 
L 12.40625 -13.8125 
L 5.21875 -13.8125 
L 5.21875 7.171875 
z
" id="DejaVuSans-434"/>
     <path d="M 32.171875 -5.078125 
Q 28.375 -14.84375 24.75 -17.8125 
Q 21.140625 -20.796875 15.09375 -20.796875 
L 7.90625 -20.796875 
L 7.90625 -13.28125 
L 13.1875 -13.28125 
Q 16.890625 -13.28125 18.9375 -11.515625 
Q 21 -9.765625 23.484375 -3.21875 
L 25.09375 0.875 
L 2.984375 54.6875 
L 12.5 54.6875 
L 29.59375 11.921875 
L 46.6875 54.6875 
L 56.203125 54.6875 
z
" id="DejaVuSans-443"/>
     <path d="M 48.78125 52.59375 
L 48.78125 44.1875 
Q 44.96875 46.296875 41.140625 47.34375 
Q 37.3125 48.390625 33.40625 48.390625 
Q 24.65625 48.390625 19.8125 42.84375 
Q 14.984375 37.3125 14.984375 27.296875 
Q 14.984375 17.28125 19.8125 11.734375 
Q 24.65625 6.203125 33.40625 6.203125 
Q 37.3125 6.203125 41.140625 7.25 
Q 44.96875 8.296875 48.78125 10.40625 
L 48.78125 2.09375 
Q 45.015625 0.34375 40.984375 -0.53125 
Q 36.96875 -1.421875 32.421875 -1.421875 
Q 20.0625 -1.421875 12.78125 6.34375 
Q 5.515625 14.109375 5.515625 27.296875 
Q 5.515625 40.671875 12.859375 48.328125 
Q 20.21875 56 33.015625 56 
Q 37.15625 56 41.109375 55.140625 
Q 45.0625 54.296875 48.78125 52.59375 
z
" id="DejaVuSans-441"/>
     <path d="M 51.125 21.4375 
Q 51.125 28.21875 47.28125 31.515625 
Q 43.453125 34.8125 35.5 34.8125 
L 19.671875 34.8125 
L 19.671875 8.109375 
L 35.5 8.109375 
Q 43.453125 8.109375 47.28125 11.40625 
Q 51.125 14.703125 51.125 21.4375 
z
M 56.390625 72.90625 
L 56.390625 64.796875 
L 19.671875 64.796875 
L 19.671875 42.921875 
L 35.984375 42.921875 
Q 48.25 42.921875 54.890625 37.59375 
Q 61.53125 32.28125 61.53125 21.4375 
Q 61.53125 10.640625 55.109375 5.3125 
Q 48.6875 0 35.984375 0 
L 9.8125 0 
L 9.8125 72.90625 
z
" id="DejaVuSans-411"/>
     <path d="M 9.8125 72.90625 
L 24.515625 72.90625 
L 43.109375 23.296875 
L 61.8125 72.90625 
L 76.515625 72.90625 
L 76.515625 0 
L 66.890625 0 
L 66.890625 64.015625 
L 48.09375 14.015625 
L 38.1875 14.015625 
L 19.390625 64.015625 
L 19.390625 0 
L 9.8125 0 
z
" id="DejaVuSans-41c"/>
     <path d="M 9.8125 72.90625 
L 19.671875 72.90625 
L 19.671875 43.015625 
L 55.515625 43.015625 
L 55.515625 72.90625 
L 65.375 72.90625 
L 65.375 0 
L 55.515625 0 
L 55.515625 34.71875 
L 19.671875 34.71875 
L 19.671875 0 
L 9.8125 0 
z
" id="DejaVuSans-41d"/>
    </defs>
    <g transform="translate(290.304 189.923)scale(0.08 -0.08)">
     <use transform="translate(0 0.015625)" xlink:href="#DejaVuSans-440"/>
     <use transform="translate(63.476562 0.015625)" xlink:href="#DejaVuSans-430"/>
     <use transform="translate(124.755859 0.015625)" xlink:href="#DejaVuSans-434"/>
     <use transform="translate(193.896484 0.015625)" xlink:href="#DejaVuSans-456"/>
     <use transform="translate(221.679688 0.015625)" xlink:href="#DejaVuSans-443"/>
     <use transform="translate(280.859375 0.015625)" xlink:href="#DejaVuSans-441"/>
     <use transform="translate(335.839844 0.015625)" xlink:href="#DejaVuSans-20"/>
     <use transform="translate(367.626953 0.015625)" xlink:href="#DejaVuSans-411"/>
     <use transform="translate(436.230469 0.015625)" xlink:href="#DejaVuSans-41c"/>
     <use transform="translate(522.509766 0.015625)" xlink:href="#DejaVuSans-41d"/>
     <use transform="translate(597.705078 0.015625)" xlink:href="#DejaVuSans-2c"/>
     <use transform="translate(629.492188 0.015625)" xlink:href="#DejaVuSans-20"/>
     <use transform="translate(661.279297 0.015625)" xlink:href="#DejaVuSans-35"/>
     <use transform="translate(724.902344 0.015625)" xlink:href="#DejaVuSans-30"/>
     <use transform="translate(788.525391 0.015625)" xlink:href="#DejaVuSans-20"/>
     <use transform="translate(820.3125 0.015625)" xlink:href="#DejaVuSans-Oblique-43d"/>
     <use transform="translate(885.693359 0.015625)" xlink:href="#DejaVuSans-Oblique-43c"/>
    </g>
    <!--  -->
    <g transform="translate(290.304 198.8975)scale(0.08 -0.08)"/>
    <!-- радіус Везикули, 250 $ нм$ -->
    <defs>
     <path d="M 19.671875 34.8125 
L 19.671875 8.109375 
L 35.5 8.109375 
Q 43.453125 8.109375 47.28125 11.40625 
Q 51.125 14.703125 51.125 21.484375 
Q 51.125 28.328125 47.28125 31.5625 
Q 43.453125 34.8125 35.5 34.8125 
z
M 19.671875 64.796875 
L 19.671875 42.828125 
L 34.28125 42.828125 
Q 41.5 42.828125 45.03125 45.53125 
Q 48.578125 48.25 48.578125 53.8125 
Q 48.578125 59.328125 45.03125 62.0625 
Q 41.5 64.796875 34.28125 64.796875 
z
M 9.8125 72.90625 
L 35.015625 72.90625 
Q 46.296875 72.90625 52.390625 68.21875 
Q 58.5 63.53125 58.5 54.890625 
Q 58.5 48.1875 55.375 44.234375 
Q 52.25 40.28125 46.1875 39.3125 
Q 53.46875 37.75 57.5 32.78125 
Q 61.53125 27.828125 61.53125 20.40625 
Q 61.53125 10.640625 54.890625 5.3125 
Q 48.25 0 35.984375 0 
L 9.8125 0 
z
" id="DejaVuSans-412"/>
     <path d="M 9.078125 54.6875 
L 18.015625 54.6875 
L 18.015625 29 
L 43.359375 54.6875 
L 54.390625 54.6875 
L 33.5 33.546875 
L 57.078125 0 
L 47.015625 0 
L 27.640625 27.59375 
L 18.015625 17.828125 
L 18.015625 0 
L 9.078125 0 
z
" id="DejaVuSans-43a"/>
    </defs>
    <g transform="translate(290.304 207.85725)scale(0.08 -0.08)">
     <use transform="translate(0 0.015625)" xlink:href="#DejaVuSans-440"/>
     <use transform="translate(63.476562 0.015625)" xlink:href="#DejaVuSans-430"/>
     <use transform="translate(124.755859 0.015625)" xlink:href="#DejaVuSans-434"/>
     <use transform="translate(193.896484 0.015625)" xlink:href="#DejaVuSans-456"/>
     <use transform="translate(221.679688 0.015625)" xlink:href="#DejaVuSans-443"/>
     <use transform="translate(280.859375 0.015625)" xlink:href="#DejaVuSans-441"/>
     <use transform="translate(335.839844 0.015625)" xlink:href="#DejaVuSans-20"/>
     <use transform="translate(367.626953 0.015625)" xlink:href="#DejaVuSans-412"/>
     <use transform="translate(436.230469 0.015625)" xlink:href="#DejaVuSans-435"/>
     <use transform="translate(497.753906 0.015625)" xlink:href="#DejaVuSans-437"/>
     <use transform="translate(550.927734 0.015625)" xlink:href="#DejaVuSans-438"/>
     <use transform="translate(615.917969 0.015625)" xlink:href="#DejaVuSans-43a"/>
     <use transform="translate(676.318359 0.015625)" xlink:href="#DejaVuSans-443"/>
     <use transform="translate(735.498047 0.015625)" xlink:href="#DejaVuSans-43b"/>
     <use transform="translate(799.414062 0.015625)" xlink:href="#DejaVuSans-438"/>
     <use transform="translate(864.404297 0.015625)" xlink:href="#DejaVuSans-2c"/>
     <use transform="translate(896.191406 0.015625)" xlink:href="#DejaVuSans-20"/>
     <use transform="translate(927.978516 0.015625)" xlink:href="#DejaVuSans-32"/>
     <use transform="translate(991.601562 0.015625)" xlink:href="#DejaVuSans-35"/>
     <use transform="translate(1055.224609 0.015625)" xlink:href="#DejaVuSans-30"/>
     <use transform="translate(1118.847656 0.015625)" xlink:href="#DejaVuSans-20"/>
     <use transform="translate(1150.634766 0.015625)" xlink:href="#DejaVuSans-Oblique-43d"/>
     <use transform="translate(1216.015625 0.015625)" xlink:href="#DejaVuSans-Oblique-43c"/>
    </g>
    <!--  -->
    <g transform="translate(290.304 216.83175)scale(0.08 -0.08)"/>
    <!-- Динамічна в'язкість  -->
    <defs>
     <path d="M 22.796875 8.296875 
L 55.03125 8.296875 
L 55.03125 64.59375 
L 31.34375 64.59375 
L 31.34375 54.25 
Q 31.34375 29.890625 25.875 13.71875 
Q 24.75 10.40625 22.796875 8.296875 
z
M 8.40625 8.296875 
Q 14.9375 11.375 16.796875 17.234375 
Q 21.53125 32.28125 21.53125 59.125 
L 21.53125 72.90625 
L 64.890625 72.90625 
L 64.890625 8.296875 
L 73.1875 8.296875 
L 73.1875 -15.671875 
L 64.890625 -15.671875 
L 64.890625 0 
L 13.234375 0 
L 13.234375 -15.671875 
L 4.9375 -15.671875 
L 4.9375 8.296875 
z
" id="DejaVuSans-414"/>
     <path d="M 41.015625 0 
L 41.015625 23 
L 24.265625 23 
Q 16.796875 23 11.8125 27.640625 
Q 7.328125 31.84375 7.328125 40.828125 
L 7.328125 54.6875 
L 16.3125 54.6875 
L 16.3125 41.65625 
Q 16.3125 35.9375 18.84375 33.0625 
Q 21.4375 30.171875 26.515625 30.171875 
L 41.015625 30.171875 
L 41.015625 54.6875 
L 50 54.6875 
L 50 0 
z
" id="DejaVuSans-447"/>
     <path d="M 17.921875 72.90625 
L 17.921875 45.796875 
L 9.625 45.796875 
L 9.625 72.90625 
z
" id="DejaVuSans-27"/>
     <path d="M 43.453125 16.21875 
Q 43.453125 20.609375 40.25 22.90625 
Q 37.0625 25.203125 30.90625 25.203125 
L 18.109375 25.203125 
L 18.109375 7.171875 
L 30.90625 7.171875 
Q 37.0625 7.171875 40.25 9.484375 
Q 43.453125 11.8125 43.453125 16.21875 
z
M 9.078125 54.6875 
L 18.109375 54.6875 
L 18.109375 32.375 
L 31.296875 32.375 
Q 41.75 32.375 47.390625 28.390625 
Q 53.03125 24.421875 53.03125 16.21875 
Q 53.03125 8.015625 47.390625 4 
Q 41.75 0 31.296875 0 
L 9.078125 0 
z
" id="DejaVuSans-44c"/>
    </defs>
    <g transform="translate(290.304 225.79)scale(0.08 -0.08)">
     <use xlink:href="#DejaVuSans-414"/>
     <use x="78.125" xlink:href="#DejaVuSans-438"/>
     <use x="143.115234" xlink:href="#DejaVuSans-43d"/>
     <use x="208.496094" xlink:href="#DejaVuSans-430"/>
     <use x="269.775391" xlink:href="#DejaVuSans-43c"/>
     <use x="345.214844" xlink:href="#DejaVuSans-456"/>
     <use x="372.998047" xlink:href="#DejaVuSans-447"/>
     <use x="432.080078" xlink:href="#DejaVuSans-43d"/>
     <use x="497.460938" xlink:href="#DejaVuSans-430"/>
     <use x="558.740234" xlink:href="#DejaVuSans-20"/>
     <use x="590.527344" xlink:href="#DejaVuSans-432"/>
     <use x="649.462891" xlink:href="#DejaVuSans-27"/>
     <use x="676.953125" xlink:href="#DejaVuSans-44f"/>
     <use x="737.109375" xlink:href="#DejaVuSans-437"/>
     <use x="790.283203" xlink:href="#DejaVuSans-43a"/>
     <use x="850.683594" xlink:href="#DejaVuSans-456"/>
     <use x="878.466797" xlink:href="#DejaVuSans-441"/>
     <use x="933.447266" xlink:href="#DejaVuSans-442"/>
     <use x="991.699219" xlink:href="#DejaVuSans-44c"/>
     <use x="1050.634766" xlink:href="#DejaVuSans-20"/>
    </g>
    <!-- середовища, 0.0101 $ \frac{г}{см с}$ -->
    <defs>
     <path d="M 82.421875 0 
L 9.078125 0 
L 9.078125 54.6875 
L 18.109375 54.6875 
L 18.109375 7.171875 
L 41.21875 7.171875 
L 41.21875 54.6875 
L 50.25 54.6875 
L 50.25 7.171875 
L 73.390625 7.171875 
L 73.390625 54.6875 
L 82.421875 54.6875 
L 82.421875 7.171875 
L 89.59375 7.171875 
L 89.59375 -13.8125 
L 82.421875 -13.8125 
z
" id="DejaVuSans-449"/>
     <path d="M 10.6875 12.40625 
L 21 12.40625 
L 21 0 
L 10.6875 0 
z
" id="DejaVuSans-2e"/>
     <path d="M 3.765625 0 
L 14.40625 54.6875 
L 52.984375 54.6875 
L 51.5625 47.515625 
L 22.015625 47.515625 
L 12.796875 0 
z
" id="DejaVuSans-Oblique-433"/>
    </defs>
    <g transform="translate(290.304 235.42175)scale(0.08 -0.08)">
     <use transform="translate(0 0.921875)" xlink:href="#DejaVuSans-441"/>
     <use transform="translate(54.980469 0.921875)" xlink:href="#DejaVuSans-435"/>
     <use transform="translate(116.503906 0.921875)" xlink:href="#DejaVuSans-440"/>
     <use transform="translate(179.980469 0.921875)" xlink:href="#DejaVuSans-435"/>
     <use transform="translate(241.503906 0.921875)" xlink:href="#DejaVuSans-434"/>
     <use transform="translate(310.644531 0.921875)" xlink:href="#DejaVuSans-43e"/>
     <use transform="translate(371.826172 0.921875)" xlink:href="#DejaVuSans-432"/>
     <use transform="translate(430.761719 0.921875)" xlink:href="#DejaVuSans-438"/>
     <use transform="translate(495.751953 0.921875)" xlink:href="#DejaVuSans-449"/>
     <use transform="translate(589.941406 0.921875)" xlink:href="#DejaVuSans-430"/>
     <use transform="translate(651.220703 0.921875)" xlink:href="#DejaVuSans-2c"/>
     <use transform="translate(683.007812 0.921875)" xlink:href="#DejaVuSans-20"/>
     <use transform="translate(714.794922 0.921875)" xlink:href="#DejaVuSans-30"/>
     <use transform="translate(778.417969 0.921875)" xlink:href="#DejaVuSans-2e"/>
     <use transform="translate(810.205078 0.921875)" xlink:href="#DejaVuSans-30"/>
     <use transform="translate(873.828125 0.921875)" xlink:href="#DejaVuSans-31"/>
     <use transform="translate(937.451172 0.921875)" xlink:href="#DejaVuSans-30"/>
     <use transform="translate(1001.074219 0.921875)" xlink:href="#DejaVuSans-31"/>
     <use transform="translate(1064.697266 0.921875)" xlink:href="#DejaVuSans-20"/>
     <use transform="translate(1143.484375 44.71875)scale(0.7)" xlink:href="#DejaVuSans-Oblique-433"/>
     <use transform="translate(1096.484375 -25.73125)scale(0.7)" xlink:href="#DejaVuSans-Oblique-441"/>
     <use transform="translate(1134.970703 -25.73125)scale(0.7)" xlink:href="#DejaVuSans-Oblique-43c"/>
     <use transform="translate(1187.77832 -25.73125)scale(0.7)" xlink:href="#DejaVuSans-Oblique-441"/>
     <path d="M 1096.484375 19.71875 
L 1096.484375 25.96875 
L 1226.264648 25.96875 
L 1226.264648 19.71875 
L 1096.484375 19.71875 
z
"/>
    </g>
    <!--  -->
    <g transform="translate(290.304 244.95625)scale(0.08 -0.08)"/>
    <!-- кількість частинок -->
    <g transform="translate(290.304 253.9145)scale(0.08 -0.08)">
     <use xlink:href="#DejaVuSans-43a"/>
     <use x="60.400391" xlink:href="#DejaVuSans-456"/>
     <use x="88.183594" xlink:href="#DejaVuSans-43b"/>
     <use x="152.099609" xlink:href="#DejaVuSans-44c"/>
     <use x="211.035156" xlink:href="#DejaVuSans-43a"/>
     <use x="271.435547" xlink:href="#DejaVuSans-456"/>
     <use x="299.21875" xlink:href="#DejaVuSans-441"/>
     <use x="354.199219" xlink:href="#DejaVuSans-442"/>
     <use x="412.451172" xlink:href="#DejaVuSans-44c"/>
     <use x="471.386719" xlink:href="#DejaVuSans-20"/>
     <use x="503.173828" xlink:href="#DejaVuSans-447"/>
     <use x="562.255859" xlink:href="#DejaVuSans-430"/>
     <use x="623.535156" xlink:href="#DejaVuSans-441"/>
     <use x="678.515625" xlink:href="#DejaVuSans-442"/>
     <use x="736.767578" xlink:href="#DejaVuSans-438"/>
     <use x="801.757812" xlink:href="#DejaVuSans-43d"/>
     <use x="867.138672" xlink:href="#DejaVuSans-43e"/>
     <use x="928.320312" xlink:href="#DejaVuSans-43a"/>
    </g>
    <!-- у ланцюжку, 3  част -->
    <defs>
     <path d="M 56.296875 0 
L 9.078125 0 
L 9.078125 54.6875 
L 18.109375 54.6875 
L 18.109375 7.171875 
L 47.265625 7.171875 
L 47.265625 54.6875 
L 56.296875 54.6875 
L 56.296875 7.171875 
L 63.484375 7.171875 
L 63.484375 -13.8125 
L 56.296875 -13.8125 
z
" id="DejaVuSans-446"/>
     <path d="M 53.609375 48.390625 
Q 46.390625 48.390625 42.1875 42.75 
Q 37.984375 37.109375 37.984375 27.296875 
Q 37.984375 17.484375 42.15625 11.84375 
Q 46.34375 6.203125 53.609375 6.203125 
Q 60.796875 6.203125 64.984375 11.859375 
Q 69.1875 17.53125 69.1875 27.296875 
Q 69.1875 37.015625 64.984375 42.703125 
Q 60.796875 48.390625 53.609375 48.390625 
z
M 28.8125 32.859375 
Q 29.734375 42.140625 35.8125 49.0625 
Q 41.890625 56 53.609375 56 
Q 65.328125 56 72.015625 48.375 
Q 78.71875 40.765625 78.71875 27.296875 
Q 78.71875 13.875 72.015625 6.21875 
Q 65.328125 -1.421875 53.609375 -1.421875 
Q 41.84375 -1.421875 35.421875 5.953125 
Q 29 13.328125 28.5625 25.4375 
L 18.40625 25.4375 
L 18.40625 0 
L 9.421875 0 
L 9.421875 54.6875 
L 18.40625 54.6875 
L 18.40625 32.859375 
z
" id="DejaVuSans-44e"/>
     <path d="M 40.578125 54.6875 
L 49.515625 54.6875 
L 49.515625 29 
L 73.390625 54.6875 
L 83.84375 54.6875 
L 64.203125 33.640625 
L 86.671875 0 
L 77.046875 0 
L 58.640625 27.640625 
L 49.515625 17.828125 
L 49.515625 0 
L 40.578125 0 
L 40.578125 17.828125 
L 31.453125 27.640625 
L 13.03125 0 
L 3.421875 0 
L 25.875 33.640625 
L 6.25 54.6875 
L 16.703125 54.6875 
L 40.578125 29 
z
" id="DejaVuSans-436"/>
    </defs>
    <g transform="translate(290.304 262.87275)scale(0.08 -0.08)">
     <use xlink:href="#DejaVuSans-443"/>
     <use x="59.179688" xlink:href="#DejaVuSans-20"/>
     <use x="90.966797" xlink:href="#DejaVuSans-43b"/>
     <use x="154.882812" xlink:href="#DejaVuSans-430"/>
     <use x="216.162109" xlink:href="#DejaVuSans-43d"/>
     <use x="281.542969" xlink:href="#DejaVuSans-446"/>
     <use x="349.609375" xlink:href="#DejaVuSans-44e"/>
     <use x="433.789062" xlink:href="#DejaVuSans-436"/>
     <use x="523.876953" xlink:href="#DejaVuSans-43a"/>
     <use x="584.277344" xlink:href="#DejaVuSans-443"/>
     <use x="643.457031" xlink:href="#DejaVuSans-2c"/>
     <use x="675.244141" xlink:href="#DejaVuSans-20"/>
     <use x="707.03125" xlink:href="#DejaVuSans-33"/>
     <use x="770.654297" xlink:href="#DejaVuSans-20"/>
     <use x="802.441406" xlink:href="#DejaVuSans-20"/>
     <use x="834.228516" xlink:href="#DejaVuSans-447"/>
     <use x="893.310547" xlink:href="#DejaVuSans-430"/>
     <use x="954.589844" xlink:href="#DejaVuSans-441"/>
     <use x="1009.570312" xlink:href="#DejaVuSans-442"/>
    </g>
    <!--  -->
    <g transform="translate(290.304 271.831)scale(0.08 -0.08)"/>
    <!-- намагнічесність БМН, 477  -->
    <defs>
     <path d="M 8.203125 72.90625 
L 55.078125 72.90625 
L 55.078125 68.703125 
L 28.609375 0 
L 18.3125 0 
L 43.21875 64.59375 
L 8.203125 64.59375 
z
" id="DejaVuSans-37"/>
    </defs>
    <g transform="translate(290.304 280.78925)scale(0.08 -0.08)">
     <use xlink:href="#DejaVuSans-43d"/>
     <use x="65.380859" xlink:href="#DejaVuSans-430"/>
     <use x="126.660156" xlink:href="#DejaVuSans-43c"/>
     <use x="202.099609" xlink:href="#DejaVuSans-430"/>
     <use x="263.378906" xlink:href="#DejaVuSans-433"/>
     <use x="315.917969" xlink:href="#DejaVuSans-43d"/>
     <use x="381.298828" xlink:href="#DejaVuSans-456"/>
     <use x="409.082031" xlink:href="#DejaVuSans-447"/>
     <use x="468.164062" xlink:href="#DejaVuSans-435"/>
     <use x="529.6875" xlink:href="#DejaVuSans-441"/>
     <use x="584.667969" xlink:href="#DejaVuSans-43d"/>
     <use x="650.048828" xlink:href="#DejaVuSans-456"/>
     <use x="677.832031" xlink:href="#DejaVuSans-441"/>
     <use x="732.8125" xlink:href="#DejaVuSans-442"/>
     <use x="791.064453" xlink:href="#DejaVuSans-44c"/>
     <use x="850" xlink:href="#DejaVuSans-20"/>
     <use x="881.787109" xlink:href="#DejaVuSans-411"/>
     <use x="950.390625" xlink:href="#DejaVuSans-41c"/>
     <use x="1036.669922" xlink:href="#DejaVuSans-41d"/>
     <use x="1111.865234" xlink:href="#DejaVuSans-2c"/>
     <use x="1143.652344" xlink:href="#DejaVuSans-20"/>
     <use x="1175.439453" xlink:href="#DejaVuSans-34"/>
     <use x="1239.0625" xlink:href="#DejaVuSans-37"/>
     <use x="1302.685547" xlink:href="#DejaVuSans-37"/>
     <use x="1366.308594" xlink:href="#DejaVuSans-20"/>
    </g>
    <!--  -->
    <g transform="translate(290.304 289.7475)scale(0.08 -0.08)"/>
    <!-- Швидкість веизикули, 0.05 $ \frac{см}{с}$ -->
    <defs>
     <path d="M 58.40625 8.296875 
L 87.25 8.296875 
L 87.25 72.90625 
L 97.125 72.90625 
L 97.125 0 
L 9.8125 0 
L 9.8125 72.90625 
L 19.671875 72.90625 
L 19.671875 8.296875 
L 48.53125 8.296875 
L 48.53125 72.90625 
L 58.40625 72.90625 
z
" id="DejaVuSans-428"/>
    </defs>
    <g transform="translate(290.304 299.47525)scale(0.08 -0.08)">
     <use transform="translate(0 0.007812)" xlink:href="#DejaVuSans-428"/>
     <use transform="translate(106.933594 0.007812)" xlink:href="#DejaVuSans-432"/>
     <use transform="translate(165.869141 0.007812)" xlink:href="#DejaVuSans-438"/>
     <use transform="translate(230.859375 0.007812)" xlink:href="#DejaVuSans-434"/>
     <use transform="translate(300 0.007812)" xlink:href="#DejaVuSans-43a"/>
     <use transform="translate(360.400391 0.007812)" xlink:href="#DejaVuSans-456"/>
     <use transform="translate(388.183594 0.007812)" xlink:href="#DejaVuSans-441"/>
     <use transform="translate(443.164062 0.007812)" xlink:href="#DejaVuSans-442"/>
     <use transform="translate(501.416016 0.007812)" xlink:href="#DejaVuSans-44c"/>
     <use transform="translate(560.351562 0.007812)" xlink:href="#DejaVuSans-20"/>
     <use transform="translate(592.138672 0.007812)" xlink:href="#DejaVuSans-432"/>
     <use transform="translate(651.074219 0.007812)" xlink:href="#DejaVuSans-435"/>
     <use transform="translate(712.597656 0.007812)" xlink:href="#DejaVuSans-438"/>
     <use transform="translate(777.587891 0.007812)" xlink:href="#DejaVuSans-437"/>
     <use transform="translate(830.761719 0.007812)" xlink:href="#DejaVuSans-438"/>
     <use transform="translate(895.751953 0.007812)" xlink:href="#DejaVuSans-43a"/>
     <use transform="translate(956.152344 0.007812)" xlink:href="#DejaVuSans-443"/>
     <use transform="translate(1015.332031 0.007812)" xlink:href="#DejaVuSans-43b"/>
     <use transform="translate(1079.248047 0.007812)" xlink:href="#DejaVuSans-438"/>
     <use transform="translate(1144.238281 0.007812)" xlink:href="#DejaVuSans-2c"/>
     <use transform="translate(1176.025391 0.007812)" xlink:href="#DejaVuSans-20"/>
     <use transform="translate(1207.8125 0.007812)" xlink:href="#DejaVuSans-30"/>
     <use transform="translate(1271.435547 0.007812)" xlink:href="#DejaVuSans-2e"/>
     <use transform="translate(1303.222656 0.007812)" xlink:href="#DejaVuSans-30"/>
     <use transform="translate(1366.845703 0.007812)" xlink:href="#DejaVuSans-35"/>
     <use transform="translate(1430.46875 0.007812)" xlink:href="#DejaVuSans-20"/>
     <use transform="translate(1462.255859 44.8)scale(0.7)" xlink:href="#DejaVuSans-Oblique-441"/>
     <use transform="translate(1500.742188 44.8)scale(0.7)" xlink:href="#DejaVuSans-Oblique-43c"/>
     <use transform="translate(1488.255859 -26.645312)scale(0.7)" xlink:href="#DejaVuSans-Oblique-441"/>
     <path d="M 1462.255859 18.804688 
L 1462.255859 25.054688 
L 1553.549805 25.054688 
L 1553.549805 18.804688 
L 1462.255859 18.804688 
z
"/>
    </g>
    <!--  -->
    <g transform="translate(290.304 309.00975)scale(0.08 -0.08)"/>
    <!--  -->
    <g transform="translate(290.304 317.968)scale(0.08 -0.08)"/>
   </g>
   <g id="legend_1">
    <g id="patch_7">
     <path d="M 287.8576 115.903875 
L 387.4576 115.903875 
Q 389.4576 115.903875 389.4576 113.903875 
L 389.4576 48.472 
Q 389.4576 46.472 387.4576 46.472 
L 287.8576 46.472 
Q 285.8576 46.472 285.8576 48.472 
L 285.8576 113.903875 
Q 285.8576 115.903875 287.8576 115.903875 
z
" style="fill:#ffffff;opacity:0.8;stroke:#cccccc;stroke-linejoin:miter;"/>
    </g>
    <g id="text_18">
     <!-- Майгнітна -->
     <defs>
      <path d="M 55.90625 54.6875 
L 55.90625 0 
L 46.96875 0 
L 46.96875 43.890625 
L 20.609375 0 
L 9.078125 0 
L 9.078125 54.6875 
L 18.015625 54.6875 
L 18.015625 10.890625 
L 44.34375 54.6875 
z
M 17.21875 75.515625 
L 22.984375 75.515625 
Q 23.515625 71.859375 25.875 70.015625 
Q 28.25 68.1875 32.5 68.1875 
Q 36.703125 68.1875 39.046875 70 
Q 41.390625 71.8125 42.015625 75.515625 
L 47.78125 75.515625 
Q 47.296875 68.53125 43.4375 65.015625 
Q 39.578125 61.5 32.5 61.5 
Q 25.421875 61.5 21.5625 65.015625 
Q 17.703125 68.53125 17.21875 75.515625 
z
" id="DejaVuSans-439"/>
     </defs>
     <g transform="translate(289.8576 58.030125)scale(0.1 -0.1)">
      <use xlink:href="#DejaVuSans-41c"/>
      <use x="86.279297" xlink:href="#DejaVuSans-430"/>
      <use x="147.558594" xlink:href="#DejaVuSans-439"/>
      <use x="212.548828" xlink:href="#DejaVuSans-433"/>
      <use x="265.087891" xlink:href="#DejaVuSans-43d"/>
      <use x="330.46875" xlink:href="#DejaVuSans-456"/>
      <use x="358.251953" xlink:href="#DejaVuSans-442"/>
      <use x="416.503906" xlink:href="#DejaVuSans-43d"/>
      <use x="481.884766" xlink:href="#DejaVuSans-430"/>
     </g>
     <!-- сприйнятлівисть -->
     <g transform="translate(289.8576 69.227937)scale(0.1 -0.1)">
      <use xlink:href="#DejaVuSans-441"/>
      <use x="54.980469" xlink:href="#DejaVuSans-43f"/>
      <use x="120.361328" xlink:href="#DejaVuSans-440"/>
      <use x="183.837891" xlink:href="#DejaVuSans-438"/>
      <use x="248.828125" xlink:href="#DejaVuSans-439"/>
      <use x="313.818359" xlink:href="#DejaVuSans-43d"/>
      <use x="379.199219" xlink:href="#DejaVuSans-44f"/>
      <use x="439.355469" xlink:href="#DejaVuSans-442"/>
      <use x="497.607422" xlink:href="#DejaVuSans-43b"/>
      <use x="561.523438" xlink:href="#DejaVuSans-456"/>
      <use x="589.306641" xlink:href="#DejaVuSans-432"/>
      <use x="648.242188" xlink:href="#DejaVuSans-438"/>
      <use x="713.232422" xlink:href="#DejaVuSans-441"/>
      <use x="768.212891" xlink:href="#DejaVuSans-442"/>
      <use x="826.464844" xlink:href="#DejaVuSans-44c"/>
     </g>
     <!-- везикули,  $ -\log(\chi)$ -->
     <defs>
      <path d="M 10.59375 35.5 
L 73.1875 35.5 
L 73.1875 27.203125 
L 10.59375 27.203125 
z
" id="DejaVuSans-2212"/>
      <path d="M 9.421875 75.984375 
L 18.40625 75.984375 
L 18.40625 0 
L 9.421875 0 
z
" id="DejaVuSans-6c"/>
      <path d="M 30.609375 48.390625 
Q 23.390625 48.390625 19.1875 42.75 
Q 14.984375 37.109375 14.984375 27.296875 
Q 14.984375 17.484375 19.15625 11.84375 
Q 23.34375 6.203125 30.609375 6.203125 
Q 37.796875 6.203125 41.984375 11.859375 
Q 46.1875 17.53125 46.1875 27.296875 
Q 46.1875 37.015625 41.984375 42.703125 
Q 37.796875 48.390625 30.609375 48.390625 
z
M 30.609375 56 
Q 42.328125 56 49.015625 48.375 
Q 55.71875 40.765625 55.71875 27.296875 
Q 55.71875 13.875 49.015625 6.21875 
Q 42.328125 -1.421875 30.609375 -1.421875 
Q 18.84375 -1.421875 12.171875 6.21875 
Q 5.515625 13.875 5.515625 27.296875 
Q 5.515625 40.765625 12.171875 48.375 
Q 18.84375 56 30.609375 56 
z
" id="DejaVuSans-6f"/>
      <path d="M 45.40625 27.984375 
Q 45.40625 37.75 41.375 43.109375 
Q 37.359375 48.484375 30.078125 48.484375 
Q 22.859375 48.484375 18.828125 43.109375 
Q 14.796875 37.75 14.796875 27.984375 
Q 14.796875 18.265625 18.828125 12.890625 
Q 22.859375 7.515625 30.078125 7.515625 
Q 37.359375 7.515625 41.375 12.890625 
Q 45.40625 18.265625 45.40625 27.984375 
z
M 54.390625 6.78125 
Q 54.390625 -7.171875 48.1875 -13.984375 
Q 42 -20.796875 29.203125 -20.796875 
Q 24.46875 -20.796875 20.265625 -20.09375 
Q 16.0625 -19.390625 12.109375 -17.921875 
L 12.109375 -9.1875 
Q 16.0625 -11.328125 19.921875 -12.34375 
Q 23.78125 -13.375 27.78125 -13.375 
Q 36.625 -13.375 41.015625 -8.765625 
Q 45.40625 -4.15625 45.40625 5.171875 
L 45.40625 9.625 
Q 42.625 4.78125 38.28125 2.390625 
Q 33.9375 0 27.875 0 
Q 17.828125 0 11.671875 7.65625 
Q 5.515625 15.328125 5.515625 27.984375 
Q 5.515625 40.671875 11.671875 48.328125 
Q 17.828125 56 27.875 56 
Q 33.9375 56 38.28125 53.609375 
Q 42.625 51.21875 45.40625 46.390625 
L 45.40625 54.6875 
L 54.390625 54.6875 
z
" id="DejaVuSans-67"/>
      <path d="M 31 75.875 
Q 24.46875 64.65625 21.28125 53.65625 
Q 18.109375 42.671875 18.109375 31.390625 
Q 18.109375 20.125 21.3125 9.0625 
Q 24.515625 -2 31 -13.1875 
L 23.1875 -13.1875 
Q 15.875 -1.703125 12.234375 9.375 
Q 8.59375 20.453125 8.59375 31.390625 
Q 8.59375 42.28125 12.203125 53.3125 
Q 15.828125 64.359375 23.1875 75.875 
z
" id="DejaVuSans-28"/>
      <path d="M 30.03125 -12.203125 
L 26.421875 6.5 
L 6.15625 -20.84375 
L -4.4375 -20.84375 
L 24.265625 17.828125 
L 19.828125 40.828125 
Q 18.65625 46.96875 11.140625 46.96875 
L 8.734375 46.96875 
L 10.203125 54.6875 
L 13.625 54.59375 
Q 26.171875 54.25 27.734375 46.09375 
L 31.34375 27.390625 
L 51.609375 54.734375 
L 62.203125 54.734375 
L 33.5 16.0625 
L 37.9375 -6.9375 
Q 39.109375 -13.09375 46.625 -13.09375 
L 49.03125 -13.09375 
L 47.5625 -20.796875 
L 44.140625 -20.703125 
Q 31.59375 -20.359375 30.03125 -12.203125 
z
" id="DejaVuSans-Oblique-3c7"/>
      <path d="M 8.015625 75.875 
L 15.828125 75.875 
Q 23.140625 64.359375 26.78125 53.3125 
Q 30.421875 42.28125 30.421875 31.390625 
Q 30.421875 20.453125 26.78125 9.375 
Q 23.140625 -1.703125 15.828125 -13.1875 
L 8.015625 -13.1875 
Q 14.5 -2 17.703125 9.0625 
Q 20.90625 20.125 20.90625 31.390625 
Q 20.90625 42.671875 17.703125 53.65625 
Q 14.5 64.65625 8.015625 75.875 
z
" id="DejaVuSans-29"/>
     </defs>
     <g transform="translate(289.8576 80.427625)scale(0.1 -0.1)">
      <use transform="translate(0 0.015625)" xlink:href="#DejaVuSans-432"/>
      <use transform="translate(58.935547 0.015625)" xlink:href="#DejaVuSans-435"/>
      <use transform="translate(120.458984 0.015625)" xlink:href="#DejaVuSans-437"/>
      <use transform="translate(173.632812 0.015625)" xlink:href="#DejaVuSans-438"/>
      <use transform="translate(238.623047 0.015625)" xlink:href="#DejaVuSans-43a"/>
      <use transform="translate(299.023438 0.015625)" xlink:href="#DejaVuSans-443"/>
      <use transform="translate(358.203125 0.015625)" xlink:href="#DejaVuSans-43b"/>
      <use transform="translate(422.119141 0.015625)" xlink:href="#DejaVuSans-438"/>
      <use transform="translate(487.109375 0.015625)" xlink:href="#DejaVuSans-2c"/>
      <use transform="translate(518.896484 0.015625)" xlink:href="#DejaVuSans-20"/>
      <use transform="translate(550.683594 0.015625)" xlink:href="#DejaVuSans-20"/>
      <use transform="translate(582.470703 0.015625)" xlink:href="#DejaVuSans-2212"/>
      <use transform="translate(666.259766 0.015625)" xlink:href="#DejaVuSans-6c"/>
      <use transform="translate(694.042969 0.015625)" xlink:href="#DejaVuSans-6f"/>
      <use transform="translate(755.224609 0.015625)" xlink:href="#DejaVuSans-67"/>
      <use transform="translate(818.701172 0.015625)" xlink:href="#DejaVuSans-28"/>
      <use transform="translate(857.714844 0.015625)" xlink:href="#DejaVuSans-Oblique-3c7"/>
      <use transform="translate(916.894531 0.015625)" xlink:href="#DejaVuSans-29"/>
     </g>
    </g>
    <g id="line2d_19">
     <path d="M 293.2951 91.646063 
L 313.2951 91.646063 
" style="fill:none;stroke:#0000ff;stroke-linecap:square;stroke-width:1.5;"/>
    </g>
    <g id="line2d_20">
     <g>
      <use style="fill:#0000ff;stroke:#0000ff;stroke-linejoin:miter;" x="303.2951" xlink:href="#meef92c5042" y="91.646063"/>
     </g>
    </g>
    <g id="text_19">
     <!-- 8 -->
     <g transform="translate(321.2951 95.146063)scale(0.1 -0.1)">
      <use xlink:href="#DejaVuSans-38"/>
     </g>
    </g>
    <g id="line2d_21">
     <path d="M 293.2951 106.324188 
L 313.2951 106.324188 
" style="fill:none;stroke:#008000;stroke-linecap:square;stroke-width:1.5;"/>
    </g>
    <g id="line2d_22">
     <g>
      <use style="fill:#008000;stroke:#008000;stroke-linejoin:miter;" x="303.2951" xlink:href="#m94c6df1136" y="106.324188"/>
     </g>
    </g>
    <g id="text_20">
     <!-- 6 -->
     <g transform="translate(321.2951 109.824188)scale(0.1 -0.1)">
      <use xlink:href="#DejaVuSans-36"/>
     </g>
    </g>
    <g id="line2d_23">
     <path d="M 347.6576 91.646063 
L 367.6576 91.646063 
" style="fill:none;stroke:#ff0000;stroke-linecap:square;stroke-width:1.5;"/>
    </g>
    <g id="line2d_24">
     <g>
      <use style="fill:#ff0000;stroke:#ff0000;stroke-linejoin:miter;" x="357.6576" xlink:href="#m16f28dd707" y="91.646063"/>
     </g>
    </g>
    <g id="text_21">
     <!-- 4 -->
     <g transform="translate(375.6576 95.146063)scale(0.1 -0.1)">
      <use xlink:href="#DejaVuSans-34"/>
     </g>
    </g>
    <g id="line2d_25">
     <path d="M 347.6576 106.324188 
L 367.6576 106.324188 
" style="fill:none;stroke:#00bfbf;stroke-linecap:square;stroke-width:1.5;"/>
    </g>
    <g id="line2d_26">
     <g>
      <use style="fill:#00bfbf;stroke:#00bfbf;stroke-linejoin:miter;" x="357.6576" xlink:href="#mb5ccdedcbb" y="106.324188"/>
     </g>
    </g>
    <g id="text_22">
     <!-- 2 -->
     <g transform="translate(375.6576 109.824188)scale(0.1 -0.1)">
      <use xlink:href="#DejaVuSans-32"/>
     </g>
    </g>
   </g>
  </g>
 </g>
 <defs>
  <clipPath id="p82427356bc">
   <rect height="266.112" width="218.88" x="57.6" y="41.472"/>
  </clipPath>
 </defs>
</svg>
